<?xml version="1.0" encoding="UTF-8" standalone="no"?><svg xmlns="http://www.w3.org/2000/svg" xmlns:xlink="http://www.w3.org/1999/xlink" clip-rule="evenodd" fill="#000000" fill-rule="evenodd" height="230" preserveAspectRatio="xMidYMid meet" stroke-linejoin="round" stroke-miterlimit="2" version="1" viewBox="200.3 86.3 154.2 230.1" width="154" zoomAndPan="magnify"><g><g><path d="M0 0H500V500H0z" fill="none" transform="translate(.5 .1)"/><g id="change1_1"><path d="M13703.1,8251.72C13699.2,8251.72 13694,8251.36 13687.6,8250.63C13681.3,8249.9 13674.7,8246.93 13667.8,8241.72C13660.1,8235.68 13655.1,8227.97 13652.8,8218.6C13651.8,8214.85 13651.2,8211.1 13651.2,8207.35C13651.2,8201.93 13652.4,8196.51 13654.7,8191.1C13656.1,8187.56 13658.3,8184.43 13661.2,8181.72C13664.2,8179.02 13667.5,8177.45 13671.2,8177.04C13675,8177.04 13678.5,8178.13 13681.7,8180.32C13684.9,8182.51 13688,8184.85 13690.9,8187.35C13690.9,8187.56 13691,8187.66 13691.2,8187.66C13698.5,8194.95 13707,8199.95 13716.5,8202.66C13718.6,8203.08 13720.7,8203.29 13722.8,8203.29C13731.5,8203.29 13738.2,8200.16 13742.8,8193.91C13744.9,8190.58 13745.9,8186.93 13745.9,8182.97C13745.9,8181.52 13745.7,8179.07 13745.1,8175.63C13744.6,8172.19 13742.6,8168.39 13739,8164.22C13731.3,8156.52 13722.2,8150.99 13711.5,8147.66C13699.5,8143.7 13689.8,8139.33 13682.5,8134.54C13674.4,8128.29 13668.6,8120.27 13665.3,8110.47C13663.2,8104.43 13662.2,8098.39 13662.2,8092.35C13662.2,8088.39 13662.6,8084.54 13663.4,8080.79C13669,8060.16 13681.9,8045.58 13701.9,8037.04C13711.2,8033.7 13720.6,8032.04 13730,8032.04C13740.2,8032.04 13750.5,8034.02 13760.9,8037.97C13769,8040.89 13775.9,8045.42 13781.5,8051.57C13787.2,8057.71 13790,8064.74 13790,8072.66C13790,8077.66 13788.2,8082.4 13784.7,8086.88C13781.1,8091.36 13776.1,8093.6 13769.7,8093.6C13764.7,8093.6 13759.7,8092.45 13754.7,8090.16C13749,8088.08 13743.8,8087.04 13739,8087.04C13738.4,8087.04 13736.8,8087.09 13734,8087.19C13731.3,8087.3 13728.5,8088.81 13725.6,8091.72C13724.4,8093.39 13723.7,8095.27 13723.7,8097.35C13723.7,8099.22 13724.5,8101.78 13725.9,8105.01C13727.4,8108.23 13729.5,8111.1 13732.2,8113.6C13738.2,8119.22 13745.2,8123.39 13753.1,8126.1C13762.5,8129.85 13769.9,8133.6 13775.3,8137.35C13788.4,8148.18 13795,8162.04 13795,8178.91L13794.7,8185.47C13791.5,8204.01 13782.5,8219.12 13767.5,8230.79C13748.1,8244.74 13726.7,8251.72 13703.1,8251.72Z" fill="#ffffff" fill-rule="nonzero" stroke="#ffffff" stroke-width="10.42" transform="translate(-13445.7 -7940.58)"/></g><g><path d="M13703.1,8251.72C13699.2,8251.72 13694,8251.36 13687.6,8250.63C13681.3,8249.9 13674.7,8246.93 13667.8,8241.72C13660.1,8235.68 13655.1,8227.97 13652.8,8218.6C13651.8,8214.85 13651.2,8211.1 13651.2,8207.35C13651.2,8201.93 13652.4,8196.51 13654.7,8191.1C13656.1,8187.56 13658.3,8184.43 13661.2,8181.72C13664.2,8179.02 13667.5,8177.45 13671.2,8177.04C13675,8177.04 13678.5,8178.13 13681.7,8180.32C13684.9,8182.51 13688,8184.85 13690.9,8187.35C13690.9,8187.56 13691,8187.66 13691.2,8187.66C13698.5,8194.95 13707,8199.95 13716.5,8202.66C13718.6,8203.08 13720.7,8203.29 13722.8,8203.29C13731.5,8203.29 13738.2,8200.16 13742.8,8193.91C13744.9,8190.58 13745.9,8186.93 13745.9,8182.97C13745.9,8181.52 13745.7,8179.07 13745.1,8175.63C13744.6,8172.19 13742.6,8168.39 13739,8164.22C13731.3,8156.52 13722.2,8150.99 13711.5,8147.66C13699.5,8143.7 13689.8,8139.33 13682.5,8134.54C13674.4,8128.29 13668.6,8120.27 13665.3,8110.47C13663.2,8104.43 13662.2,8098.39 13662.2,8092.35C13662.2,8088.39 13662.6,8084.54 13663.4,8080.79C13669,8060.16 13681.9,8045.58 13701.9,8037.04C13711.2,8033.7 13720.6,8032.04 13730,8032.04C13740.2,8032.04 13750.5,8034.02 13760.9,8037.97C13769,8040.89 13775.9,8045.42 13781.5,8051.57C13787.2,8057.71 13790,8064.74 13790,8072.66C13790,8077.66 13788.2,8082.4 13784.7,8086.88C13781.1,8091.36 13776.1,8093.6 13769.7,8093.6C13764.7,8093.6 13759.7,8092.45 13754.7,8090.16C13749,8088.08 13743.8,8087.04 13739,8087.04C13738.4,8087.04 13736.8,8087.09 13734,8087.19C13731.3,8087.3 13728.5,8088.81 13725.6,8091.72C13724.4,8093.39 13723.7,8095.27 13723.7,8097.35C13723.7,8099.22 13724.5,8101.78 13725.9,8105.01C13727.4,8108.23 13729.5,8111.1 13732.2,8113.6C13738.2,8119.22 13745.2,8123.39 13753.1,8126.1C13762.5,8129.85 13769.9,8133.6 13775.3,8137.35C13788.4,8148.18 13795,8162.04 13795,8178.91L13794.7,8185.47C13791.5,8204.01 13782.5,8219.12 13767.5,8230.79C13748.1,8244.74 13726.7,8251.72 13703.1,8251.72Z" fill="none" stroke="#ffffff" stroke-width="2.08" transform="translate(-13445 -7940.58)"/></g></g></g></svg>