<?xml version="1.0" encoding="UTF-8" standalone="no"?><svg xmlns="http://www.w3.org/2000/svg" xmlns:xlink="http://www.w3.org/1999/xlink" clip-rule="evenodd" fill="#000000" fill-rule="evenodd" height="223" preserveAspectRatio="xMidYMid meet" stroke-linejoin="round" stroke-miterlimit="2" version="1" viewBox="164.6 161.3 175.1 222.6" width="175" zoomAndPan="magnify"><g><g><path d="M0 0H500V500H0z" fill="none" transform="translate(.4 .1)"/><g id="change1_1"><path d="M1042.23,8216.43C1039.73,8216.43 1037.13,8216.12 1034.42,8215.49C1022.55,8210.7 1016.3,8200.28 1015.67,8184.24C1015.25,8177.78 1015.05,8171.43 1015.05,8165.18C1015.05,8142.68 1018.22,8119.4 1024.58,8095.34C1030.93,8071.27 1041.5,8048.41 1056.3,8026.74C1059.84,8021.12 1064.32,8016.12 1069.73,8011.74C1075.98,8006.74 1083.28,8004.24 1091.61,8004.24C1098.07,8004.24 1104.32,8006.07 1110.36,8009.71C1116.4,8013.36 1121.71,8017.89 1126.3,8023.31C1144.63,8044.35 1157.6,8067.52 1165.2,8092.84C1172.81,8118.15 1177.55,8143.83 1179.42,8169.87L1179.73,8177.06C1179.73,8180.39 1179.37,8184.19 1178.64,8188.46C1177.91,8192.73 1175.25,8196.95 1170.67,8201.12C1166.09,8204.87 1160.15,8206.74 1152.86,8206.74C1148.9,8206.74 1145.05,8205.91 1141.3,8204.24C1132.13,8199.87 1125.57,8193.51 1121.61,8185.18C1117.44,8175.18 1115.05,8164.87 1114.42,8154.24L1112.55,8134.56C1105.88,8136.01 1099.11,8136.74 1092.23,8136.74L1089.73,8136.74L1089.73,8140.18C1089.73,8158.1 1085.36,8175.28 1076.61,8191.74C1072.86,8199.03 1067.55,8205.28 1060.67,8210.49C1054.84,8214.45 1048.69,8216.43 1042.23,8216.43ZM1097.86,8097.68C1099.94,8097.68 1102.03,8096.85 1104.11,8095.18C1106.4,8092.26 1107.55,8088.51 1107.55,8083.93C1107.55,8081.64 1107.34,8079.35 1106.92,8077.06C1105.46,8066.22 1101.3,8059.87 1094.42,8057.99L1093.8,8057.99C1091.5,8057.99 1089.84,8059.97 1088.8,8063.93L1088.48,8065.18C1087.44,8068.93 1086.92,8072.68 1086.92,8076.43C1086.92,8080.81 1087.65,8085.18 1089.11,8089.56C1089.53,8091.22 1090.25,8092.78 1091.3,8094.24C1092.96,8096.53 1095.15,8097.68 1097.86,8097.68Z" fill="#373853" fill-rule="nonzero" stroke="#373853" stroke-width="10.42" transform="translate(-845.215 -7837.76)"/></g><g><path d="M1042.23,8216.43C1039.73,8216.43 1037.13,8216.12 1034.42,8215.49C1022.55,8210.7 1016.3,8200.28 1015.67,8184.24C1015.25,8177.78 1015.05,8171.43 1015.05,8165.18C1015.05,8142.68 1018.22,8119.4 1024.58,8095.34C1030.93,8071.27 1041.5,8048.41 1056.3,8026.74C1059.84,8021.12 1064.32,8016.12 1069.73,8011.74C1075.98,8006.74 1083.28,8004.24 1091.61,8004.24C1098.07,8004.24 1104.32,8006.07 1110.36,8009.71C1116.4,8013.36 1121.71,8017.89 1126.3,8023.31C1144.63,8044.35 1157.6,8067.52 1165.2,8092.84C1172.81,8118.15 1177.55,8143.83 1179.42,8169.87L1179.73,8177.06C1179.73,8180.39 1179.37,8184.19 1178.64,8188.46C1177.91,8192.73 1175.25,8196.95 1170.67,8201.12C1166.09,8204.87 1160.15,8206.74 1152.86,8206.74C1148.9,8206.74 1145.05,8205.91 1141.3,8204.24C1132.13,8199.87 1125.57,8193.51 1121.61,8185.18C1117.44,8175.18 1115.05,8164.87 1114.42,8154.24L1112.55,8134.56C1105.88,8136.01 1099.11,8136.74 1092.23,8136.74L1089.73,8136.74L1089.73,8140.18C1089.73,8158.1 1085.36,8175.28 1076.61,8191.74C1072.86,8199.03 1067.55,8205.28 1060.67,8210.49C1054.84,8214.45 1048.69,8216.43 1042.23,8216.43ZM1097.86,8097.68C1099.94,8097.68 1102.03,8096.85 1104.11,8095.18C1106.4,8092.26 1107.55,8088.51 1107.55,8083.93C1107.55,8081.64 1107.34,8079.35 1106.92,8077.06C1105.46,8066.22 1101.3,8059.87 1094.42,8057.99L1093.8,8057.99C1091.5,8057.99 1089.84,8059.97 1088.8,8063.93L1088.48,8065.18C1087.44,8068.93 1086.92,8072.68 1086.92,8076.43C1086.92,8080.81 1087.65,8085.18 1089.11,8089.56C1089.53,8091.22 1090.25,8092.78 1091.3,8094.24C1092.96,8096.53 1095.15,8097.68 1097.86,8097.68Z" fill="none" stroke="#ffffff" stroke-width="2.08" transform="translate(-844.545 -7837.76)"/></g></g></g></svg>