<?xml version="1.0" encoding="UTF-8" standalone="no"?><svg xmlns="http://www.w3.org/2000/svg" xmlns:xlink="http://www.w3.org/1999/xlink" clip-rule="evenodd" fill="#000000" fill-rule="evenodd" height="217" preserveAspectRatio="xMidYMid meet" stroke-linejoin="round" stroke-miterlimit="2" version="1" viewBox="164.4 174.8 129.5 216.7" width="129" zoomAndPan="magnify"><g><g><path d="M0 0H500V500H0z" fill="none" transform="translate(.9 .1)"/><g id="change1_1"><path d="M8984.17,8251.99C8965.84,8251.99 8951.47,8244.49 8941.05,8229.49C8937.51,8223.45 8935.16,8216.78 8934.02,8209.49C8932.87,8202.2 8932.19,8194.91 8931.99,8187.61L8927.92,8101.99L8927.61,8091.99C8927.61,8088.65 8927.82,8084.54 8928.24,8079.64C8928.65,8074.75 8930.32,8069.38 8933.24,8063.55C8940.53,8051.68 8951.57,8045.74 8966.36,8045.74C8972.61,8045.74 8978.81,8046.94 8984.96,8049.33C8991.1,8051.73 8995.84,8056.88 8999.17,8064.8C9002.09,8074.18 9003.55,8083.76 9003.55,8093.55C9003.55,8097.09 9003.34,8100.74 9002.92,8104.49C9002.92,8125.32 9001.88,8149.38 8999.8,8176.68L9009.49,8171.68C9012.82,8170.43 9016.15,8169.8 9019.49,8169.8C9021.78,8169.8 9024.17,8170.11 9026.67,8170.74C9036.67,8174.7 9043.03,8181.99 9045.74,8192.61C9046.36,8195.53 9046.67,8198.34 9046.67,8201.05C9046.67,8208.13 9044.69,8215.01 9040.74,8221.68C9035.11,8230.22 9027.82,8237.09 9018.86,8242.3C9008.03,8248.76 8996.47,8251.99 8984.17,8251.99Z" fill="#ffffff" fill-rule="nonzero" stroke="#ffffff" stroke-width="10.42" transform="translate(-8757.96 -7865.76)"/></g><g><path d="M8984.17,8251.99C8965.84,8251.99 8951.47,8244.49 8941.05,8229.49C8937.51,8223.45 8935.16,8216.78 8934.02,8209.49C8932.87,8202.2 8932.19,8194.91 8931.99,8187.61L8927.92,8101.99L8927.61,8091.99C8927.61,8088.65 8927.82,8084.54 8928.24,8079.64C8928.65,8074.75 8930.32,8069.38 8933.24,8063.55C8940.53,8051.68 8951.57,8045.74 8966.36,8045.74C8972.61,8045.74 8978.81,8046.94 8984.96,8049.33C8991.1,8051.73 8995.84,8056.88 8999.17,8064.8C9002.09,8074.18 9003.55,8083.76 9003.55,8093.55C9003.55,8097.09 9003.34,8100.74 9002.92,8104.49C9002.92,8125.32 9001.88,8149.38 8999.8,8176.68L9009.49,8171.68C9012.82,8170.43 9016.15,8169.8 9019.49,8169.8C9021.78,8169.8 9024.17,8170.11 9026.67,8170.74C9036.67,8174.7 9043.03,8181.99 9045.74,8192.61C9046.36,8195.53 9046.67,8198.34 9046.67,8201.05C9046.67,8208.13 9044.69,8215.01 9040.74,8221.68C9035.11,8230.22 9027.82,8237.09 9018.86,8242.3C9008.03,8248.76 8996.47,8251.99 8984.17,8251.99Z" fill="none" stroke="#ffffff" stroke-width="2.08" transform="translate(-8757.29 -7865.76)"/></g></g></g></svg>