<?xml version="1.0" encoding="UTF-8" standalone="no"?><svg xmlns="http://www.w3.org/2000/svg" xmlns:xlink="http://www.w3.org/1999/xlink" clip-rule="evenodd" fill="#000000" fill-rule="evenodd" height="329" preserveAspectRatio="xMidYMid meet" stroke-linejoin="round" stroke-miterlimit="2" version="1" viewBox="53.1 87.6 391.9 328.6" width="392" zoomAndPan="magnify"><g><g><path d="M0 0H500V500H0z" fill="none" transform="translate(.1 .1)"/><g id="change1_1"><path d="M18198.3,8281.28L18192.7,8281.28C18180.2,8281.28 18173.6,8281.18 18173,8280.97L18170.2,8280.97C18169.7,8280.76 18169.2,8280.66 18168.4,8280.66C18167.7,8280.66 18166.8,8280.45 18165.8,8280.03C18148.7,8280.03 18131.9,8277.32 18115.5,8271.91C18076.7,8262.53 18053.8,8244.72 18046.7,8218.47C18046.1,8215.55 18045.8,8212.74 18045.8,8210.03C18045.8,8202.95 18048.2,8196.44 18053,8190.5C18057.8,8184.56 18065.7,8181.28 18076.7,8180.65C18093.2,8181.07 18110.2,8187.84 18127.7,8200.97C18137.7,8208.47 18148.1,8215.45 18158.9,8221.91C18170.8,8228.99 18183.5,8232.95 18197,8233.78L18198.9,8234.09L18212,8234.09C18219.9,8234.09 18224.3,8233.99 18225.2,8233.78L18231.1,8233.47L18232,8232.84C18249.9,8231.59 18266.5,8226.28 18281.7,8216.91L18285.8,8214.72L18301.1,8202.53C18311.5,8191.07 18320.4,8178.15 18327.7,8163.78C18334.5,8152.53 18339.8,8139.51 18343.6,8124.72C18345.1,8120.76 18345.8,8118.26 18345.8,8117.22L18339.2,8114.09C18313.2,8103.26 18295.6,8084.61 18286.4,8058.15L18282.7,8043.47C18281.4,8032.22 18280.8,8025.03 18280.8,8021.9C18280.4,8020.65 18280.2,8018.26 18280.2,8014.72L18280.8,8002.53C18280.8,8001.28 18280.9,8000.24 18281.1,7999.4C18282.3,7984.61 18286.4,7974.2 18293.3,7968.15C18296.6,7965.03 18300.5,7963.36 18304.8,7963.15C18309.6,7963.78 18313.9,7965.55 18317.7,7968.47C18321.6,7970.97 18324.7,7974.2 18327,7978.15C18329.1,7980.86 18331.2,7991.49 18333.3,8010.03C18334.5,8020.03 18336,8029.77 18337.7,8039.25C18339.3,8048.73 18341.8,8055.65 18345.2,8060.03C18346.8,8062.32 18348.7,8063.47 18350.8,8063.47C18353.1,8063.47 18355.6,8062.32 18358.3,8060.03C18363.1,8054.4 18366.7,8048.21 18369.1,8041.44C18371.5,8034.67 18373.5,8027.63 18375.2,8020.34C18380.8,7991.18 18391.5,7975.34 18407.3,7972.84L18409.8,7972.84C18415.9,7972.84 18420.5,7975.65 18423.6,7981.28C18426.1,7987.11 18427.3,7992.74 18427.3,7998.15C18427.3,8004.61 18426.2,8012.53 18423.9,8021.9C18409.1,8091.28 18385.1,8152.01 18351.7,8204.09L18349.2,8207.22C18348,8209.51 18346.4,8211.59 18344.5,8213.47L18340.8,8219.09L18339.8,8219.72C18301.3,8260.76 18254.1,8281.28 18198.3,8281.28Z" fill="#ffffff" fill-rule="nonzero" stroke="#ffffff" stroke-width="10.42" transform="translate(-17987.5 -7870.29)"/></g><g><path d="M18198.3,8281.28L18192.7,8281.28C18180.2,8281.28 18173.6,8281.18 18173,8280.97L18170.2,8280.97C18169.7,8280.76 18169.2,8280.66 18168.4,8280.66C18167.7,8280.66 18166.8,8280.45 18165.8,8280.03C18148.7,8280.03 18131.9,8277.32 18115.5,8271.91C18076.7,8262.53 18053.8,8244.72 18046.7,8218.47C18046.1,8215.55 18045.8,8212.74 18045.8,8210.03C18045.8,8202.95 18048.2,8196.44 18053,8190.5C18057.8,8184.56 18065.7,8181.28 18076.7,8180.65C18093.2,8181.07 18110.2,8187.84 18127.7,8200.97C18137.7,8208.47 18148.1,8215.45 18158.9,8221.91C18170.8,8228.99 18183.5,8232.95 18197,8233.78L18198.9,8234.09L18212,8234.09C18219.9,8234.09 18224.3,8233.99 18225.2,8233.78L18231.1,8233.47L18232,8232.84C18249.9,8231.59 18266.5,8226.28 18281.7,8216.91L18285.8,8214.72L18301.1,8202.53C18311.5,8191.07 18320.4,8178.15 18327.7,8163.78C18334.5,8152.53 18339.8,8139.51 18343.6,8124.72C18345.1,8120.76 18345.8,8118.26 18345.8,8117.22L18339.2,8114.09C18313.2,8103.26 18295.6,8084.61 18286.4,8058.15L18282.7,8043.47C18281.4,8032.22 18280.8,8025.03 18280.8,8021.9C18280.4,8020.65 18280.2,8018.26 18280.2,8014.72L18280.8,8002.53C18280.8,8001.28 18280.9,8000.24 18281.1,7999.4C18282.3,7984.61 18286.4,7974.2 18293.3,7968.15C18296.6,7965.03 18300.5,7963.36 18304.8,7963.15C18309.6,7963.78 18313.9,7965.55 18317.7,7968.47C18321.6,7970.97 18324.7,7974.2 18327,7978.15C18329.1,7980.86 18331.2,7991.49 18333.3,8010.03C18334.5,8020.03 18336,8029.77 18337.7,8039.25C18339.3,8048.73 18341.8,8055.65 18345.2,8060.03C18346.8,8062.32 18348.7,8063.47 18350.8,8063.47C18353.1,8063.47 18355.6,8062.32 18358.3,8060.03C18363.1,8054.4 18366.7,8048.21 18369.1,8041.44C18371.5,8034.67 18373.5,8027.63 18375.2,8020.34C18380.8,7991.18 18391.5,7975.34 18407.3,7972.84L18409.8,7972.84C18415.9,7972.84 18420.5,7975.65 18423.6,7981.28C18426.1,7987.11 18427.3,7992.74 18427.3,7998.15C18427.3,8004.61 18426.2,8012.53 18423.9,8021.9C18409.1,8091.28 18385.1,8152.01 18351.7,8204.09L18349.2,8207.22C18348,8209.51 18346.4,8211.59 18344.5,8213.47L18340.8,8219.09L18339.8,8219.72C18301.3,8260.76 18254.1,8281.28 18198.3,8281.28Z" fill="none" stroke="#ffffff" stroke-width="2.08" transform="translate(-17986.8 -7870.29)"/></g></g></g></svg>