<?xml version="1.0" encoding="UTF-8" standalone="no"?><svg xmlns="http://www.w3.org/2000/svg" xmlns:xlink="http://www.w3.org/1999/xlink" clip-rule="evenodd" fill="#000000" fill-rule="evenodd" height="228" preserveAspectRatio="xMidYMid meet" stroke-linejoin="round" stroke-miterlimit="2" version="1" viewBox="240.1 98.0 150.7 227.9" width="151" zoomAndPan="magnify"><g><g><path d="M0 0H500V500H0z" fill="none" transform="translate(.7 .1)"/><g id="change1_1"><path d="M14586.8,8254.78C14579.9,8254.58 14573.8,8252.34 14568.4,8248.07C14563,8243.8 14558.9,8238.53 14556.2,8232.28C14552,8221.66 14549.9,8210.51 14549.9,8198.85C14549.9,8175.93 14551.9,8150.51 14555.9,8122.6L14558.4,8101.97C14556.5,8102.18 14554.4,8102.28 14552.1,8102.28C14543.2,8102.28 14535.8,8100.41 14529.9,8096.66C14522.6,8091.66 14518.3,8084.89 14516.8,8076.35L14516.5,8073.22C14516.5,8068.64 14517.9,8064 14520.7,8059.32C14523.5,8054.63 14527.4,8050.62 14532.4,8047.28C14542.6,8041.66 14553.7,8038.64 14565.6,8038.22C14573.1,8037.6 14580.5,8037.28 14587.7,8037.28C14596.3,8037.28 14604.7,8037.7 14613.1,8038.53C14624.7,8039.16 14635.2,8042.6 14644.6,8048.85C14652.7,8056.14 14656.8,8064.99 14656.8,8075.41C14656.8,8083.74 14653.9,8090.31 14648.1,8095.1C14645.1,8096.97 14639.2,8098.74 14630.2,8100.41C14624.2,8101.45 14618.1,8101.97 14611.8,8101.97L14604,8101.66C14616.1,8134.37 14622.1,8168.22 14622.1,8203.22C14622.1,8223.85 14616.2,8238.85 14604.3,8248.22C14599.1,8252.39 14593.3,8254.58 14586.8,8254.78Z" fill="#373853" fill-rule="nonzero" stroke="#373853" stroke-width="10.42" transform="translate(-14271.2 -7934.04)"/></g><g><path d="M14586.8,8254.78C14579.9,8254.58 14573.8,8252.34 14568.4,8248.07C14563,8243.8 14558.9,8238.53 14556.2,8232.28C14552,8221.66 14549.9,8210.51 14549.9,8198.85C14549.9,8175.93 14551.9,8150.51 14555.9,8122.6L14558.4,8101.97C14556.5,8102.18 14554.4,8102.28 14552.1,8102.28C14543.2,8102.28 14535.8,8100.41 14529.9,8096.66C14522.6,8091.66 14518.3,8084.89 14516.8,8076.35L14516.5,8073.22C14516.5,8068.64 14517.9,8064 14520.7,8059.32C14523.5,8054.63 14527.4,8050.62 14532.4,8047.28C14542.6,8041.66 14553.7,8038.64 14565.6,8038.22C14573.1,8037.6 14580.5,8037.28 14587.7,8037.28C14596.3,8037.28 14604.7,8037.7 14613.1,8038.53C14624.7,8039.16 14635.2,8042.6 14644.6,8048.85C14652.7,8056.14 14656.8,8064.99 14656.8,8075.41C14656.8,8083.74 14653.9,8090.31 14648.1,8095.1C14645.1,8096.97 14639.2,8098.74 14630.2,8100.41C14624.2,8101.45 14618.1,8101.97 14611.8,8101.97L14604,8101.66C14616.1,8134.37 14622.1,8168.22 14622.1,8203.22C14622.1,8223.85 14616.2,8238.85 14604.3,8248.22C14599.1,8252.39 14593.3,8254.58 14586.8,8254.78Z" fill="none" stroke="#ffffff" stroke-width="2.08" transform="translate(-14270.6 -7934.04)"/></g></g></g></svg>