<?xml version="1.0" encoding="UTF-8" standalone="no"?><svg xmlns="http://www.w3.org/2000/svg" xmlns:xlink="http://www.w3.org/1999/xlink" clip-rule="evenodd" fill="#000000" fill-rule="evenodd" height="221" preserveAspectRatio="xMidYMid meet" stroke-linejoin="round" stroke-miterlimit="2" version="1" viewBox="119.5 129.6 216.0 221.0" width="216" zoomAndPan="magnify"><g><g><path d="M0 0H500V500H0z" fill="none" transform="translate(.2 .1)"/><g id="change1_1"><path d="M11105.7,8220.19C11076.3,8219.77 11051.8,8209.41 11032.1,8189.1C11012.4,8168.78 11002.2,8143.84 11001.3,8114.25C11001.7,8091.75 11008,8072.12 11020.1,8055.35C11032.2,8038.58 11047.5,8026.13 11066,8018C11078.9,8012.38 11092.2,8009.57 11105.7,8009.57C11111.7,8009.57 11117.8,8010.09 11123.8,8011.13C11146.1,8015.5 11165,8026.02 11180.4,8042.69C11195.8,8059.36 11204.7,8079.98 11206.9,8104.57L11206.9,8111.13C11206.9,8139.25 11197.7,8164.1 11179.1,8185.66C11160.6,8207.22 11136.1,8218.73 11105.7,8220.19ZM11109.4,8163.63C11122.2,8161.96 11132.4,8156.13 11140.1,8146.13C11147.2,8136.96 11150.7,8126.13 11150.7,8113.63L11150.7,8109.57C11149.4,8097.07 11145,8086.96 11137.3,8079.25C11128.3,8070.3 11117.5,8065.82 11104.8,8065.82C11093.3,8065.82 11083,8069.93 11073.8,8078.16C11064.7,8086.39 11059.8,8098.11 11059.1,8113.32C11059.3,8128.94 11064.3,8141.55 11074.1,8151.13C11082.9,8159.46 11093.3,8163.63 11105.4,8163.63L11109.4,8163.63Z" fill="#373853" fill-rule="nonzero" stroke="#373853" stroke-width="10.42" transform="translate(-10876.6 -7874.79)"/></g><g><path d="M11105.7,8220.19C11076.3,8219.77 11051.8,8209.41 11032.1,8189.1C11012.4,8168.78 11002.2,8143.84 11001.3,8114.25C11001.7,8091.75 11008,8072.12 11020.1,8055.35C11032.2,8038.58 11047.5,8026.13 11066,8018C11078.9,8012.38 11092.2,8009.57 11105.7,8009.57C11111.7,8009.57 11117.8,8010.09 11123.8,8011.13C11146.1,8015.5 11165,8026.02 11180.4,8042.69C11195.8,8059.36 11204.7,8079.98 11206.9,8104.57L11206.9,8111.13C11206.9,8139.25 11197.7,8164.1 11179.1,8185.66C11160.6,8207.22 11136.1,8218.73 11105.7,8220.19ZM11109.4,8163.63C11122.2,8161.96 11132.4,8156.13 11140.1,8146.13C11147.2,8136.96 11150.7,8126.13 11150.7,8113.63L11150.7,8109.57C11149.4,8097.07 11145,8086.96 11137.3,8079.25C11128.3,8070.3 11117.5,8065.82 11104.8,8065.82C11093.3,8065.82 11083,8069.93 11073.8,8078.16C11064.7,8086.39 11059.8,8098.11 11059.1,8113.32C11059.3,8128.94 11064.3,8141.55 11074.1,8151.13C11082.9,8159.46 11093.3,8163.63 11105.4,8163.63L11109.4,8163.63Z" fill="none" stroke="#ffffff" stroke-width="2.08" transform="translate(-10875.9 -7874.79)"/></g></g></g></svg>