<?xml version="1.0" encoding="UTF-8" standalone="no"?><svg xmlns="http://www.w3.org/2000/svg" xmlns:xlink="http://www.w3.org/1999/xlink" clip-rule="evenodd" fill="#000000" fill-rule="evenodd" height="223" preserveAspectRatio="xMidYMid meet" stroke-linejoin="round" stroke-miterlimit="2" version="1" viewBox="172.8 117.3 191.3 223.2" width="191" zoomAndPan="magnify"><g><g><path d="M0 0H500V500H0z" fill="none" transform="translate(.4 .1)"/><g id="change1_1"><path d="M10451.7,8269.48C10442.3,8268.02 10433,8260.78 10423.9,8247.76C10414.7,8234.74 10406.2,8219.9 10398.5,8203.23C10390.8,8186.57 10384.7,8171.78 10380.1,8158.86L10373.2,8139.8C10374.7,8153.55 10375.4,8167.5 10375.4,8181.67C10375.4,8187.3 10375.1,8196.46 10374.5,8209.17C10373.9,8221.88 10370.9,8234.8 10365.6,8247.92C10360.3,8261.05 10352.4,8267.61 10342,8267.61L10341.4,8267.61C10325.7,8266.15 10316.7,8254.17 10314.2,8231.67C10313.1,8222.09 10312.6,8211.25 10312.6,8199.17C10312.6,8182.71 10313.5,8163.86 10315.4,8142.61C10315.8,8133.44 10317.6,8122.66 10320.7,8110.26C10323.9,8097.87 10329.1,8087.09 10336.4,8077.92C10343,8069.8 10352,8065.73 10363.2,8065.73C10373.6,8065.73 10383.7,8072.61 10393.5,8086.36C10408.1,8107.19 10420.6,8134.38 10431,8167.92L10436.4,8185.73L10435.4,8172.3C10434.4,8160.42 10433.9,8147.5 10433.9,8133.55C10433.9,8122.5 10434.4,8111.05 10435.6,8099.17C10436.7,8087.3 10439.2,8077.24 10442.9,8069.01C10446.7,8060.78 10452.1,8056.67 10459.2,8056.67L10460.1,8056.67C10473,8058.96 10482.1,8070.84 10487.3,8092.3C10491.5,8109.17 10493.5,8127.92 10493.5,8148.55C10493.5,8154.38 10493.1,8165.73 10492.1,8182.61C10491.2,8199.48 10487.1,8218.18 10479.9,8238.7C10472.8,8259.22 10463.3,8269.48 10451.7,8269.48Z" fill="#373853" fill-rule="nonzero" stroke="#373853" stroke-width="10.42" transform="translate(-10134.6 -7934.17)"/></g><g><path d="M10451.7,8269.48C10442.3,8268.02 10433,8260.78 10423.9,8247.76C10414.7,8234.74 10406.2,8219.9 10398.5,8203.23C10390.8,8186.57 10384.7,8171.78 10380.1,8158.86L10373.2,8139.8C10374.7,8153.55 10375.4,8167.5 10375.4,8181.67C10375.4,8187.3 10375.1,8196.46 10374.5,8209.17C10373.9,8221.88 10370.9,8234.8 10365.6,8247.92C10360.3,8261.05 10352.4,8267.61 10342,8267.61L10341.4,8267.61C10325.7,8266.15 10316.7,8254.17 10314.2,8231.67C10313.1,8222.09 10312.6,8211.25 10312.6,8199.17C10312.6,8182.71 10313.5,8163.86 10315.4,8142.61C10315.8,8133.44 10317.6,8122.66 10320.7,8110.26C10323.9,8097.87 10329.1,8087.09 10336.4,8077.92C10343,8069.8 10352,8065.73 10363.2,8065.73C10373.6,8065.73 10383.7,8072.61 10393.5,8086.36C10408.1,8107.19 10420.6,8134.38 10431,8167.92L10436.4,8185.73L10435.4,8172.3C10434.4,8160.42 10433.9,8147.5 10433.9,8133.55C10433.9,8122.5 10434.4,8111.05 10435.6,8099.17C10436.7,8087.3 10439.2,8077.24 10442.9,8069.01C10446.7,8060.78 10452.1,8056.67 10459.2,8056.67L10460.1,8056.67C10473,8058.96 10482.1,8070.84 10487.3,8092.3C10491.5,8109.17 10493.5,8127.92 10493.5,8148.55C10493.5,8154.38 10493.1,8165.73 10492.1,8182.61C10491.2,8199.48 10487.1,8218.18 10479.9,8238.7C10472.8,8259.22 10463.3,8269.48 10451.7,8269.48Z" fill="none" stroke="#ffffff" stroke-width="2.08" transform="translate(-10133.9 -7934.17)"/></g></g></g></svg>