<?xml version="1.0" encoding="UTF-8" standalone="no"?><svg xmlns="http://www.w3.org/2000/svg" xmlns:xlink="http://www.w3.org/1999/xlink" clip-rule="evenodd" fill="#000000" fill-rule="evenodd" height="229" preserveAspectRatio="xMidYMid meet" stroke-linejoin="round" stroke-miterlimit="2" version="1" viewBox="159.4 100.8 152.3 229.5" width="152" zoomAndPan="magnify"><g><g><path d="M0 0H500V500H0z" fill="none" transform="translate(.96 .1)"/><g id="change1_1"><path d="M3841.47,8299.99C3831.47,8299.99 3822.1,8296.96 3813.35,8290.92C3799.39,8280.51 3791.58,8262.8 3789.91,8237.8L3789.6,8221.24C3789.6,8211.65 3790.01,8202.07 3790.85,8192.49C3791.05,8192.28 3791.16,8191.96 3791.16,8191.55C3791.78,8174.88 3794.18,8158.53 3798.35,8142.49C3802.51,8127.69 3809.7,8114.57 3819.91,8103.11C3831.99,8090.82 3846.58,8083.63 3863.66,8081.55C3866.16,8081.13 3868.66,8080.92 3871.16,8080.92C3878.45,8080.92 3885.43,8082.59 3892.1,8085.92C3901.47,8090.71 3907.3,8098.11 3909.6,8108.11L3909.91,8112.17C3909.91,8117.17 3908.5,8122.33 3905.69,8127.64C3902.88,8132.95 3898.66,8137.38 3893.03,8140.92C3881.99,8147.59 3869.7,8151.24 3856.16,8151.86C3851.37,8151.86 3846.63,8152.69 3841.94,8154.36C3837.25,8156.03 3834.08,8159.15 3832.41,8163.74L3832.1,8166.24C3832.1,8169.57 3833.45,8172.38 3836.16,8174.67C3838.24,8176.34 3840.53,8177.17 3843.03,8177.17C3845.53,8177.17 3848.55,8176.7 3852.1,8175.77C3855.64,8174.83 3858.87,8174.36 3861.78,8174.36C3864.7,8174.36 3867.41,8174.99 3869.91,8176.24C3874.08,8178.74 3876.16,8182.07 3876.16,8186.24C3876.16,8190.4 3874.23,8194.31 3870.38,8197.95C3866.52,8201.6 3861.78,8204.36 3856.16,8206.24C3850.53,8208.11 3845.64,8210.92 3841.47,8214.67C3837.93,8217.8 3836.16,8221.55 3836.16,8225.92C3836.16,8227.38 3836.47,8228.84 3837.1,8230.3C3839.39,8235.3 3843.66,8237.8 3849.91,8237.8C3851.78,8237.8 3853.55,8237.49 3855.22,8236.86C3862.51,8233.74 3868.55,8228.11 3873.35,8219.99C3876.68,8214.99 3880.53,8210.61 3884.91,8206.86C3890.33,8202.9 3896.37,8200.92 3903.03,8200.92C3908.87,8200.92 3914.28,8202.69 3919.28,8206.24C3924.28,8209.78 3927.83,8214.57 3929.91,8220.61C3930.95,8223.53 3931.47,8226.55 3931.47,8229.67C3931.47,8232.59 3930.95,8235.61 3929.91,8238.74C3926.99,8246.03 3922.51,8252.49 3916.47,8258.11C3906.47,8269.36 3895.17,8279.15 3882.56,8287.49C3869.96,8295.82 3856.26,8299.99 3841.47,8299.99Z" fill="#373853" fill-rule="nonzero" stroke="#373853" stroke-width="10.42" transform="translate(-3624.95 -7974.91)"/></g><g><path d="M3841.47,8299.99C3831.47,8299.99 3822.1,8296.96 3813.35,8290.92C3799.39,8280.51 3791.58,8262.8 3789.91,8237.8L3789.6,8221.24C3789.6,8211.65 3790.01,8202.07 3790.85,8192.49C3791.05,8192.28 3791.16,8191.96 3791.16,8191.55C3791.78,8174.88 3794.18,8158.53 3798.35,8142.49C3802.51,8127.69 3809.7,8114.57 3819.91,8103.11C3831.99,8090.82 3846.58,8083.63 3863.66,8081.55C3866.16,8081.13 3868.66,8080.92 3871.16,8080.92C3878.45,8080.92 3885.43,8082.59 3892.1,8085.92C3901.47,8090.71 3907.3,8098.11 3909.6,8108.11L3909.91,8112.17C3909.91,8117.17 3908.5,8122.33 3905.69,8127.64C3902.88,8132.95 3898.66,8137.38 3893.03,8140.92C3881.99,8147.59 3869.7,8151.24 3856.16,8151.86C3851.37,8151.86 3846.63,8152.69 3841.94,8154.36C3837.25,8156.03 3834.08,8159.15 3832.41,8163.74L3832.1,8166.24C3832.1,8169.57 3833.45,8172.38 3836.16,8174.67C3838.24,8176.34 3840.53,8177.17 3843.03,8177.17C3845.53,8177.17 3848.55,8176.7 3852.1,8175.77C3855.64,8174.83 3858.87,8174.36 3861.78,8174.36C3864.7,8174.36 3867.41,8174.99 3869.91,8176.24C3874.08,8178.74 3876.16,8182.07 3876.16,8186.24C3876.16,8190.4 3874.23,8194.31 3870.38,8197.95C3866.52,8201.6 3861.78,8204.36 3856.16,8206.24C3850.53,8208.11 3845.64,8210.92 3841.47,8214.67C3837.93,8217.8 3836.16,8221.55 3836.16,8225.92C3836.16,8227.38 3836.47,8228.84 3837.1,8230.3C3839.39,8235.3 3843.66,8237.8 3849.91,8237.8C3851.78,8237.8 3853.55,8237.49 3855.22,8236.86C3862.51,8233.74 3868.55,8228.11 3873.35,8219.99C3876.68,8214.99 3880.53,8210.61 3884.91,8206.86C3890.33,8202.9 3896.37,8200.92 3903.03,8200.92C3908.87,8200.92 3914.28,8202.69 3919.28,8206.24C3924.28,8209.78 3927.83,8214.57 3929.91,8220.61C3930.95,8223.53 3931.47,8226.55 3931.47,8229.67C3931.47,8232.59 3930.95,8235.61 3929.91,8238.74C3926.99,8246.03 3922.51,8252.49 3916.47,8258.11C3906.47,8269.36 3895.17,8279.15 3882.56,8287.49C3869.96,8295.82 3856.26,8299.99 3841.47,8299.99Z" fill="none" stroke="#ffffff" stroke-width="2.08" transform="translate(-3624.28 -7974.91)"/></g></g></g></svg>