<?xml version="1.0" encoding="UTF-8" standalone="no"?><svg xmlns="http://www.w3.org/2000/svg" xmlns:xlink="http://www.w3.org/1999/xlink" clip-rule="evenodd" fill="#000000" fill-rule="evenodd" height="239" preserveAspectRatio="xMidYMid meet" stroke-linejoin="round" stroke-miterlimit="2" version="1" viewBox="179.0 134.9 184.5 238.5" width="184" zoomAndPan="magnify"><g><g><path d="M0 0H500V500H0z" fill="none" transform="translate(.09 .1)"/><g id="change1_1"><path d="M5314.19,8271.93C5295.86,8271.93 5278.99,8267.03 5263.57,8257.24C5249.82,8248.28 5238.67,8236.3 5230.13,8221.3C5220.55,8204.22 5215.76,8185.78 5215.76,8165.99C5215.76,8142.24 5222.01,8119.84 5234.51,8098.8C5243.67,8083.59 5254.92,8071.2 5268.26,8061.61C5285.34,8049.74 5303.36,8043.8 5322.32,8043.8C5327.94,8043.8 5333.57,8044.32 5339.19,8045.36C5356.07,8048.7 5368.26,8055.78 5375.76,8066.61C5379.3,8072.45 5381.07,8078.8 5381.07,8085.68C5381.07,8086.3 5380.97,8088.8 5380.76,8093.18C5380.55,8097.55 5377.32,8102.24 5371.07,8107.24C5365.86,8111.2 5358.99,8113.18 5350.44,8113.18C5347.53,8113.18 5341.8,8112.45 5333.26,8110.99C5326.59,8109.53 5321.07,8108.8 5316.69,8108.8C5299.61,8108.8 5285.34,8116.41 5273.88,8131.61C5266.38,8142.24 5262.63,8153.49 5262.63,8165.36C5262.63,8171.82 5263.78,8178.39 5266.07,8185.05C5273.78,8204.64 5286.38,8216.41 5303.88,8220.36C5307.22,8220.99 5310.24,8221.3 5312.94,8221.3C5315.86,8221.3 5318.47,8220.99 5320.76,8220.36C5326.59,8218.07 5330.34,8214.43 5332.01,8209.43L5332.32,8206.3C5332.32,8199.01 5328.05,8195.36 5319.51,8195.36L5317.94,8195.36C5312.74,8195.36 5308.67,8194.43 5305.76,8192.55C5302.22,8190.05 5300.44,8186.72 5300.44,8182.55C5300.44,8177.76 5302.01,8173.59 5305.13,8170.05C5308.26,8167.14 5311.69,8165.1 5315.44,8163.96C5319.19,8162.81 5322.79,8162.08 5326.23,8161.77C5329.66,8161.46 5332.94,8161.3 5336.07,8161.3C5348.57,8161.3 5359.4,8164.01 5368.57,8169.43C5372.11,8171.51 5375.24,8174.01 5377.94,8176.93C5385.86,8186.09 5389.82,8196.51 5389.82,8208.18C5389.82,8221.51 5385.34,8233.59 5376.38,8244.43C5371.17,8250.68 5365.03,8255.99 5357.94,8260.36C5344.61,8268.07 5330.03,8271.93 5314.19,8271.93Z" fill="#373853" fill-rule="nonzero" stroke="#373853" stroke-width="10.42" transform="translate(-5031.57 -7903.67)"/></g><g><path d="M5314.19,8271.93C5295.86,8271.93 5278.99,8267.03 5263.57,8257.24C5249.82,8248.28 5238.67,8236.3 5230.13,8221.3C5220.55,8204.22 5215.76,8185.78 5215.76,8165.99C5215.76,8142.24 5222.01,8119.84 5234.51,8098.8C5243.67,8083.59 5254.92,8071.2 5268.26,8061.61C5285.34,8049.74 5303.36,8043.8 5322.32,8043.8C5327.94,8043.8 5333.57,8044.32 5339.19,8045.36C5356.07,8048.7 5368.26,8055.78 5375.76,8066.61C5379.3,8072.45 5381.07,8078.8 5381.07,8085.68C5381.07,8086.3 5380.97,8088.8 5380.76,8093.18C5380.55,8097.55 5377.32,8102.24 5371.07,8107.24C5365.86,8111.2 5358.99,8113.18 5350.44,8113.18C5347.53,8113.18 5341.8,8112.45 5333.26,8110.99C5326.59,8109.53 5321.07,8108.8 5316.69,8108.8C5299.61,8108.8 5285.34,8116.41 5273.88,8131.61C5266.38,8142.24 5262.63,8153.49 5262.63,8165.36C5262.63,8171.82 5263.78,8178.39 5266.07,8185.05C5273.78,8204.64 5286.38,8216.41 5303.88,8220.36C5307.22,8220.99 5310.24,8221.3 5312.94,8221.3C5315.86,8221.3 5318.47,8220.99 5320.76,8220.36C5326.59,8218.07 5330.34,8214.43 5332.01,8209.43L5332.32,8206.3C5332.32,8199.01 5328.05,8195.36 5319.51,8195.36L5317.94,8195.36C5312.74,8195.36 5308.67,8194.43 5305.76,8192.55C5302.22,8190.05 5300.44,8186.72 5300.44,8182.55C5300.44,8177.76 5302.01,8173.59 5305.13,8170.05C5308.26,8167.14 5311.69,8165.1 5315.44,8163.96C5319.19,8162.81 5322.79,8162.08 5326.23,8161.77C5329.66,8161.46 5332.94,8161.3 5336.07,8161.3C5348.57,8161.3 5359.4,8164.01 5368.57,8169.43C5372.11,8171.51 5375.24,8174.01 5377.94,8176.93C5385.86,8186.09 5389.82,8196.51 5389.82,8208.18C5389.82,8221.51 5385.34,8233.59 5376.38,8244.43C5371.17,8250.68 5365.03,8255.99 5357.94,8260.36C5344.61,8268.07 5330.03,8271.93 5314.19,8271.93Z" fill="none" stroke="#ffffff" stroke-width="2.08" transform="translate(-5030.9 -7903.67)"/></g></g></g></svg>