<?xml version="1.0" encoding="UTF-8" standalone="no"?><svg xmlns="http://www.w3.org/2000/svg" xmlns:xlink="http://www.w3.org/1999/xlink" fill="#000000" height="198" viewBox="-5.618 -5.618 414.586 198.496" width="415"><path d="m 331.27838,7.6426701e-4 a 2.227,2.227 0 0 0 -0.2207,0.019530003 19.746,19.746 0 0 0 -2.18945,0.353515 10.027,10.027 0 0 0 -4.01563,2.11132803 19.042,19.042 0 0 0 -4.29883,5.382813 16.341,16.341 0 0 0 -1.41015,3.7890617 40.669,40.669 0 0 0 -1.11915,5.232422 c -0.121,0.949 -0.34531,1.883985 -0.44531,2.833985 a 23.235,23.235 0 0 0 -0.32226,3.246093 1.276,1.276 0 0 1 -0.0547,0.386719 7.506,7.506 0 0 0 -0.16797,1.81836 18.312,18.312 0 0 1 -0.19922,3.257812 3.766,3.766 0 0 0 -0.0293,0.78125 c 0,1.439 -0.006,2.878406 0,4.316406 a 5.077,5.077 0 0 0 0.0645,1.041016 9.961,9.961 0 0 1 0.14648,1.822266 13.764,13.764 0 0 0 0.22266,2.990232 1.931,1.931 0 0 1 0.0371,0.52149 25.292,25.292 0 0 0 0.35156,3.37304 c 0.141,1.338 0.4455,2.66033 0.6875,3.98633 a 67.14,67.14 0 0 0 2.23242,8.72461 56.845,56.845 0 0 0 2.91016,7.27539 50.648,50.648 0 0 0 4.46484,7.51953 c 1.071,1.486 2.23388,2.89616 3.42188,4.28516 a 47.571,47.571 0 0 0 5.49023,5.2207 c 1.337,1.046 2.69947,2.06658 4.10547,3.01758 a 48.354,48.354 0 0 0 5.99414,3.46289 c 1.5,0.723 2.956,1.50428 4.5,2.11328 0.932,0.368 1.85534,0.75449 2.77734,1.14649 0.359,0.153 0.70483,0.33839 1.04883,0.52539 a 0.3,0.3 0 0 1 0.0996,0.22461 1.271,1.271 0 0 1 -0.0664,0.38086 c -0.805,2.532 -1.44875,5.11229 -2.21875,7.65429 -0.594,1.958997 -1.23908,3.904267 -1.95508,5.822267 a 85.476,85.476 0 0 1 -3.66602,8.23633 c -1.05,2.107 -2.1325,4.19842 -3.3125,6.23242 -1.137,1.959 -2.28242,3.91289 -3.48242,5.83789 -1.868,2.994 -3.79396,5.94981 -5.7793,8.86914 a 34.066,34.066 0 0 1 -2.66992,3.38281 c -0.408,0.457 -0.78503,0.93405 -1.20703,1.37305 -0.664,0.69 -1.34711,1.3653 -2.03711,2.0293 -0.375,0.362 -0.80683,0.6671 -1.17383,1.03711 a 28.866,28.866 0 0 1 -2.67773,2.29296 59.95,59.95 0 0 1 -5.18359,3.75586 c -0.737,0.463 -1.47804,0.92044 -2.20704,1.39844 -1.428,0.934 -2.92968,1.72148 -4.42968,2.52148 a 64.4,64.4 0 0 1 -7.03125,3.15821 46.13,46.13 0 0 1 -7.51563,2.1914 c -1.108,0.222 -2.21694,0.4521 -3.33594,0.6211 -1.376,0.208 -2.74204,0.48053 -4.12304,0.64453 a 20.44,20.44 0 0 1 -2.98242,0.33203 1.272,1.272 0 0 0 -0.38868,0.0547 8.167,8.167 0 0 1 -1.68359,0.18554 c -0.563,0.05 -1.12064,0.14775 -1.68164,0.21876 -0.129,0.015 -0.26158,0.0137 -0.39258,0.0137 a 12.9,12.9 0 0 0 -2.59961,0.20898 3.628,3.628 0 0 1 -0.7832,0.043 c -3.966,0.075 -7.93339,0.0918 -11.90039,0.008 -0.391,-0.008 -0.78188,-0.0509 -1.17188,-0.0879 -0.475,-0.046 -0.94978,-0.10734 -1.42578,-0.15234 -0.303,-0.028 -0.61211,-0.0156 -0.91211,-0.0606 -0.989,-0.15 -1.97794,-0.30237 -2.96094,-0.48437 a 48.866,48.866 0 0 1 -5.20117,-1.2461 57.6,57.6 0 0 1 -8.96875,-3.59179 c -0.979,-0.484 -1.9219,-1.02297 -2.8789,-1.54297 -1.533,-0.832 -3.01333,-1.75255 -4.48633,-2.68555 -1.583,-1.002 -3.13188,-2.05314 -4.67188,-3.11914 -1.14733,-0.79533 -2.28973,-1.59572 -3.42773,-2.40039 -1.92,-1.358 -3.81486,-2.75503 -5.75586,-4.08203 -2.842,-1.943 -5.72033,-3.827 -8.73633,-5.5 a 56.343,56.343 0 0 0 -8.43359,-3.83985 46.766,46.766 0 0 0 -7.05274,-1.91796 18.316,18.316 0 0 0 -3.88476,-0.43555 c -0.653,0.017 -1.30794,0.015 -1.96094,0 a 18.188,18.188 0 0 0 -4.65234,0.59179 20.331,20.331 0 0 0 -5.92578,2.35352 17.533,17.533 0 0 0 -4.11524,3.5957 10.114,10.114 0 0 0 -1.05078,1.49219 16.462,16.462 0 0 0 -2.29492,8.47461 c 0,0.65333 0.006,1.30694 0.0156,1.96094 a 5.827,5.827 0 0 0 0.0449,0.7832 c 0.144,0.946 0.29299,1.89003 0.45899,2.83203 a 25.875,25.875 0 0 0 3.23633,8.64649 31.717,31.717 0 0 0 4.87109,6.28515 c 0.734,0.743 1.51878,1.43196 2.30078,2.12696 a 41.818,41.818 0 0 0 3.38086,2.66992 61.5,61.5 0 0 0 7.83203,4.71679 c 1.667,0.858 3.38833,1.59699 5.11133,2.33399 2.167,0.927 4.37456,1.743 6.60156,2.5 1.319,0.448 2.65838,0.83367 3.98438,1.26367 1.534,0.5 3.09725,0.89478 4.65625,1.30078 1.979,0.515 3.97851,0.96182 5.97851,1.38282 2.768,0.58199 5.5418,1.10325 8.3418,1.53124 0.689,0.106 1.37841,0.19493 2.06641,0.29493 1.161,0.17 2.31423,0.40275 3.49023,0.46875 a 2.23,2.23 0 0 1 0.51563,0.0723 5.957,5.957 0 0 0 1.42578,0.17578 3.73,3.73 0 0 1 0.77929,0.0664 8.8,8.8 0 0 0 1.94532,0.19922 3.042,3.042 0 0 1 0.65039,0.0547 9.363,9.363 0 0 0 2.07617,0.20117 3.819,3.819 0 0 1 0.78125,0.0527 12.689,12.689 0 0 0 2.60156,0.20508 8.983,8.983 0 0 1 1.4336,0.084 10.653,10.653 0 0 0 1.94921,0.15821 c 1.008,0.017 2.00782,0.025 3.00782,0.043 a 5.386,5.386 0 0 1 1.04297,0.0566 9.147,9.147 0 0 0 1.95117,0.14258 h 3.79297 l -0.006,-0.0137 h 4.18554 a 4.946,4.946 0 0 0 1.04102,-0.0547 10.4,10.4 0 0 1 2.08203,-0.15039 c 0.916,-0.016 1.83205,-0.0259 2.74805,-0.0449 a 4.31,4.31 0 0 0 0.91015,-0.0586 9.258,9.258 0 0 1 1.94922,-0.17578 10.759,10.759 0 0 0 2.33985,-0.19922 3.876,3.876 0 0 1 0.78125,-0.0586 7.433,7.433 0 0 0 1.68554,-0.17578 2.38,2.38 0 0 1 0.64844,-0.0723 29.638,29.638 0 0 0 3.24219,-0.35742 c 1.425,-0.146 2.83,-0.46778 4.25,-0.67578 2.069,-0.303 4.10672,-0.76886 6.13672,-1.25586 1.312,-0.315 2.60039,-0.72289 3.90039,-1.08789 2.353,-0.661 4.65312,-1.46016 6.95312,-2.28516 1.927,-0.691 3.82657,-1.46875 5.72657,-2.21875 2.47399,-0.975 4.89101,-2.07866 7.29101,-3.22266 2.754,-1.315 5.4082,-2.81704 8.0332,-4.37304 a 77.45,77.45 0 0 0 7.57032,-5.12696 c 1.072,-0.821 2.10339,-1.68501 3.15039,-2.54101 1.047,-0.856 1.98664,-1.83025 3.05664,-2.65625 2.186,-2.188 4.47279,-4.27925 6.46679,-6.65625 0.812,-0.967 1.67372,-1.89094 2.51172,-2.83594 0.116,-0.131 0.22989,-0.26244 0.33789,-0.39844 0.836,-1.059 1.65672,-2.13178 2.51172,-3.17578 1.465,-1.788 2.80938,-3.66722 4.10938,-5.57422 1.89,-2.771 3.74756,-5.5624 5.47656,-8.4414 1.615,-2.691 3.17653,-5.4136 4.64453,-8.1836 2.17933,-4.12533 4.23216,-8.31254 6.16016,-12.56054 0.072,-0.158 0.13903,-0.31852 0.20703,-0.47852 0.377,-0.881 0.73281,-1.77158 1.13281,-2.64258 0.909,-1.981 1.71611,-4.00448 2.53711,-6.02148 0.952,-2.34 1.86106,-4.698827 2.78906,-7.048827 0.56,-1.418 1.12964,-2.83291 1.68164,-4.25391 0.83934,-2.15066 1.66829,-4.30422 2.48828,-6.46289 0.64534,-1.712 1.28216,-3.42781 1.91016,-5.14648 0.493,-1.35 0.96522,-2.7085 1.44922,-4.0625 0.761,-2.132 1.5472,-4.25839 2.2832,-6.40039 1.02,-2.967 2.007,-5.94588 3,-8.92188 0.635,-1.901 1.27805,-3.79889 1.87305,-5.71289 0.763,-2.453 1.49384,-4.91776 2.21484,-7.38476 0.612,-2.085 1.21539,-4.18516 1.77539,-6.28516 0.438,-1.64 0.80622,-3.29722 1.19922,-4.94922 a 59.6,59.6 0 0 0 1.19336,-7.20117 2.07,2.07 0 0 1 0.0488,-0.386719 8.45,8.45 0 0 0 0.19922,-2.199219 c 0.019,-0.742 0.24637,-1.456078 0.23437,-2.205078 -0.02,-1.569 0,-3.138984 0,-4.708984 a 4.194,4.194 0 0 0 -0.0449,-0.912109 c -0.236,-1.065 -0.23554,-2.159422 -0.43554,-3.232422 a 18.773,18.773 0 0 0 -1.74414,-5.31836 9.407,9.407 0 0 0 -3.11719,-3.6289057 7.384,7.384 0 0 0 -3.89844,-1.34375 c -0.828,-0.021 -1.65638,-0.0053 -2.48437,0.01172 a 4.941,4.941 0 0 0 -0.90821,0.09961 16.2,16.2 0 0 0 -6.47265,2.990235 12,12 0 0 0 -1.68555,1.4433587 13.582,13.582 0 0 0 -2.1582,2.941406 c -0.139,0.268 -0.28246,0.537828 -0.43946,0.798828 a 54.865,54.865 0 0 0 -3.08008,6.058594 53.888,53.888 0 0 0 -3.08789,9.289063 82.5,82.5 0 0 1 -2.94922,10.019534 c -0.69499,1.834 -1.49131,3.62439 -2.32031,5.40039 a 34.384,34.384 0 0 1 -1.65625,3.11523 c -0.737,1.234 -1.41917,2.50203 -2.20117,3.70703 -1.471,2.267 -2.992,4.50019 -4.5,6.74219 -0.291,0.433 -0.61273,0.84667 -0.92773,1.26367 a 0.784,0.784 0 0 1 -0.68946,0.29883 2.344,2.344 0 0 1 -0.8789,-0.23047 6.851,6.851 0 0 1 -3.21289,-2.95898 19.432,19.432 0 0 1 -1.67188,-3.54102 56.058,56.058 0 0 1 -1.58008,-5.6582 c -0.556,-2.463 -1.02665,-4.94178 -1.47265,-7.42578 -0.084,-0.471 -0.1781,-0.94007 -0.2461,-1.41407 -0.122,-0.86099 -0.21975,-1.72493 -0.34375,-2.585932 -0.182,-1.291 -0.35442,-2.582813 -0.48242,-3.882813 -0.107,-1.082 -0.2563,-2.16 -0.2793,-3.25 a 10.645,10.645 0 0 1 -0.23632,-2.464844 2.912,2.912 0 0 0 -0.0664,-0.65039 10.541,10.541 0 0 1 -0.19141,-1.945313 c -0.058,-0.693 -0.16128,-1.382219 -0.23828,-2.074219 -0.033,-0.302 -0.0211,-0.610156 -0.0801,-0.910156 -0.293,-1.495 -0.41968,-3.015625 -0.67968,-4.515625 a 31.789,31.789 0 0 0 -0.76758,-3.300781 19.1,19.1 0 0 0 -1.56836,-3.5878907 20.9,20.9 0 0 0 -3.21484,-4.427734 20.143,20.143 0 0 0 -2.03125,-1.837891 15.879,15.879 0 0 0 -4.16211,-2.41992203 15.228,15.228 0 0 0 -3.42969,-0.783203 2.227,2.227 0 0 0 -0.42969,-0.029300003 z M 189.83307,9.1452963 a 12.508,12.508 0 0 0 -2.46484,0.222656 17.051,17.051 0 0 0 -2.80079,0.611328 25.788,25.788 0 0 0 -5.71093,2.5527337 26.666,26.666 0 0 0 -5.32618,4.185547 10.437,10.437 0 0 0 -1.80859,2.546875 32.537,32.537 0 0 0 -1.66992,3.970703 46.112,46.112 0 0 0 -1.63867,5.910157 c -0.20867,1.022 -0.38211,2.05127 -0.52344,3.085937 a 23.274,23.274 0 0 0 -0.2832,2.591797 c -0.003,0.129 -0.0514,0.257719 -0.0664,0.386719 -0.049,0.435 -0.11177,0.866781 -0.13477,1.300781 -0.029,0.566005 -0.0251,1.132215 -0.0371,1.699215 a 16.825,16.825 0 0 1 -0.12305,1.69141 15.369,15.369 0 0 0 0,3.38867 c 0.048,0.476 0.10309,0.95269 0.12109,1.42969 0.03,0.784 0.0279,1.56952 0.0469,2.35352 a 4.679,4.679 0 0 0 0.0527,0.9121 11,11 0 0 1 0.20703,2.07618 5.893,5.893 0 0 0 0.0566,0.65039 c 0.138,0.99 0.34125,1.9707 0.40625,2.9707 0.059,0.915 0.2321,1.81484 0.3711,2.71484 0.292,1.89 0.64567,3.77239 1.01367,5.65039 0.356,1.836 0.77225,3.66119 1.15625,5.49219 0.133,0.639 0.26719,1.27688 0.36719,1.92188 a 25.809,25.809 0 0 0 0.67578,3.1914 c 0.62866,2.21934 1.34439,4.41146 2.15039,6.57813 1.108,2.985998 2.42478,5.878138 3.80078,8.744138 a 90.319,90.319 0 0 0 4.41406,8.00976 c 1.132,1.862 2.34849,3.66921 3.64649,5.421877 0.726,0.981 1.49257,1.92619 2.26757,2.86719 a 46.922,46.922 0 0 0 4.19922,4.29883 2.535,2.535 0 0 0 0.20899,0.16015 c 1.282,0.975 2.59084,1.90881 3.96484,2.75781 a 33.227,33.227 0 0 0 5.5,2.72266 36.617,36.617 0 0 0 6.38477,1.87305 c 1.284,0.241 2.586,0.34101 3.875,0.54101 a 27.528,27.528 0 0 0 5.47461,-0.19336 1.4,1.4 0 0 1 0.25976,-0.0215 9.921,9.921 0 0 0 1.67774,-0.23242 23.424,23.424 0 0 0 7.66406,-2.87305 24.052,24.052 0 0 0 3.91016,-3.04297 15.712,15.712 0 0 0 1.72265,-1.95508 46.417,46.417 0 0 0 4.95313,-7.98242 c 0.252,-0.506997 0.45131,-1.037827 0.69531,-1.548827 1.03,-2.166 1.88922,-4.4022 2.69922,-6.6582 0.941,-2.625 1.73861,-5.29538 2.47461,-7.98437 0.413,-1.51101 0.812,-3.03046 1.125,-4.56446 0.418,-2.044998 0.87892,-4.083288 1.16992,-6.154298 0.157,-1.11899 0.40503,-2.22442 0.45703,-3.35742 a 2.294,2.294 0 0 1 0.0586,-0.51953 8.531,8.531 0 0 0 0.19336,-2.07617 10.263,10.263 0 0 1 0.084,-1.5625 13.006,13.006 0 0 0 0.16797,-2.08203 13.235,13.235 0 0 1 0.0781,-1.95508 20.479,20.479 0 0 0 0.20117,-3 10.421,10.421 0 0 1 0.0762,-1.56445 12.086,12.086 0 0 0 0.16016,-2.21289 c 0.006,-1.264 0,-2.52897 0,-3.79297 l 0.0195,-0.0117 c 0,-0.653 0.015,-1.30794 0,-1.96094 a 23.88,23.88 0 0 0 -0.22851,-4.42969 4.943,4.943 0 0 1 -0.041,-0.7832 5.341,5.341 0 0 0 -0.0488,-0.78125 c -0.255,-1.28 -0.39123,-2.58175 -0.74023,-3.84375 a 18.783,18.783 0 0 0 -2.63086,-5.943358 14.085,14.085 0 0 0 -3.95508,-3.75586 22.448,22.448 0 0 0 -3.59961,-1.84375 20.307,20.307 0 0 0 -5.31836,-1.255859 c -0.172,-0.021 -0.34943,-0.01367 -0.52343,-0.01367 -0.96501,-0.025 -1.89461,0.25436 -2.84961,0.31836 a 13.619,13.619 0 0 0 -5.8418,3.066406 15.093,15.093 0 0 0 -3.74219,5.140625 14.737,14.737 0 0 0 -1.38867,6.201168 21.862,21.862 0 0 0 0.375,3.10547 c 0.266,1.675 0.57761,3.34221 0.72461,5.03321 0.015,0.174 0.0512,0.34557 0.0742,0.51757 0.056,0.43067 0.11201,0.86164 0.16601,1.29297 0.038,0.307 0.0754,0.60625 0.10938,0.90625 0.048,0.435 0.11176,0.86778 0.13476,1.30078 a 13.135,13.135 0 0 0 0.19922,2.20899 4.942,4.942 0 0 1 0.0586,1.04297 c 0.012,1.438 0.0256,2.87545 0.0176,4.31445 a 12.668,12.668 0 0 1 -0.21289,3.12109 1.877,1.877 0 0 0 -0.0312,0.39063 21.477,21.477 0 0 1 -0.45117,2.96289 44.991,44.991 0 0 1 -1.23633,4.40039 5.751,5.751 0 0 1 -1.3789,2.34375 8.333,8.333 0 0 1 -8.54883,2.11328 7.49,7.49 0 0 1 -3.58789,-2.2832 6.652,6.652 0 0 1 -1.49414,-2.57813 10.635,10.635 0 0 1 -0.59961,-3.33007 3.546,3.546 0 0 0 -0.084,-0.90821 6.653,6.653 0 0 1 -0.13671,-1.55859 c 0,-3.66134 0.002,-7.32304 0.008,-10.98438 a 4.129,4.129 0 0 1 0.0508,-0.91211 10.6,10.6 0 0 0 0.16016,-2.21093 c 0.016,-0.871 0.024,-1.74324 0.041,-2.61524 a 4.446,4.446 0 0 1 0.0527,-0.91211 12.351,12.351 0 0 0 0.18554,-2.33984 9.076,9.076 0 0 1 0.0957,-1.43164 12.382,12.382 0 0 0 0.16992,-1.81836 c 0.025,-0.478 0.0673,-0.95564 0.11328,-1.43164 0.046,-0.476 0.10153,-0.95174 0.14453,-1.42774 a 6.079,6.079 0 0 1 0.0644,-0.91015 11.783,11.783 0 0 0 0.21485,-2.337893 3.878,3.878 0 0 1 0.084,-0.777344 7.037,7.037 0 0 0 0.1543,-1.558594 11.644,11.644 0 0 1 0.19922,-2.339843 4.25,4.25 0 0 0 0.0547,-0.91211 c 0.018,-1.612666 0.0342,-3.225224 0.0469,-4.83789 a 15.531,15.531 0 0 0 -0.2832,-3.244141 29.271,29.271 0 0 0 -1.32813,-4.910156 16.828,16.828 0 0 0 -2.4375,-4.455078 10.908,10.908 0 0 0 -8.60156,-4.2812497 z M 36.647514,13.045686 a 24,24 0 0 0 -4.5625,0.226563 5.626,5.626 0 0 1 -0.78125,0.04297 5.622,5.622 0 0 0 -0.65039,0.05664 c -1.584,0.284 -3.17647,0.535703 -4.73047,0.970703 a 28.874,28.874 0 0 0 -3.95703,1.337891 34.364,34.364 0 0 0 -6.90625,3.951172 38.419,38.419 0 0 0 -4.16797,3.560547 29.719,29.719 0 0 0 -1.99999,2.238281 34.41,34.41 0 0 0 -3.48243,5.052734 34.7,34.7 0 0 0 -3.42773,8.871089 13.74,13.74 0 0 0 -0.46875,2.82813 6.658,6.658 0 0 1 -0.11328,0.77344 c -0.036,0.258 -0.0798,0.51734 -0.0918,0.77734 a 35.977,35.977 0 0 1 -0.23633,3.7793 20.07,20.07 0 0 0 -0.0703,2.48047 6.434,6.434 0 0 1 -0.0566,1.16992 12.907,12.907 0 0 0 -0.17578,2.47461 c -0.017,0.915 -0.021,1.83109 -0.043,2.74609 -0.008,0.347 -0.0491,0.69402 -0.0781,1.04102 -0.041,0.476 -0.1121,0.95073 -0.1211,1.42773 -0.032,1.612 -0.0405,3.22489 -0.0625,4.83789 a 6.264,6.264 0 0 1 -0.0547,1.17383 9.688,9.688 0 0 0 -0.14453,1.95117 c -0.0247,3.09934 -0.0483,6.19511 -0.0703,9.28711 a 9.5,9.5 0 0 1 -0.0762,1.431639 9.868,9.868 0 0 0 -0.10938,1.5625 v 6.277348 6.27734 a 6.19,6.19 0 0 0 0.0488,1.17383 10.859,10.859 0 0 1 0.13477,2.08203 c 0.0227,3.92333 0.045,7.848147 0.0684,11.771477 a 6.9,6.9 0 0 0 0.0566,1.29883 11.99,11.99 0 0 1 0.14453,2.21289 c 0.01,0.61 0.001,1.22203 0.0215,1.83203 a 40.936,40.936 0 0 0 0.23828,5.86719 16.028,16.028 0 0 0 0.26563,2.85742 c 0.14500004,0.813 0.19223004,1.64517 0.36523004,2.45118 a 25.47,25.47 0 0 0 2.55664,7.11132 14.648,14.648 0 0 0 2.33399,3.13282 13.07,13.07 0 0 0 2.45898,1.93554 41.557,41.557 0 0 0 7.04492,3.41602 c 1.385,0.533 2.7998,0.95658 4.2168,1.39258 0.957,0.295 1.92653,0.55064 2.89453,0.80664 2.358,0.623 4.74753,1.09315 7.14453,1.53515 0.641,0.118 1.30164,0.17336 1.93164,0.31836 0.683,0.156 1.37646,0.20078 2.06446,0.30078 1.161,0.176 2.31523,0.3998 3.49023,0.4668 a 2.286,2.286 0 0 1 0.51563,0.0723 5.9,5.9 0 0 0 1.425779,0.17187 3.664,3.664 0 0 1 0.779297,0.0644 9.43,9.43 0 0 0 2.076172,0.19922 3.966,3.966 0 0 1 0.78125,0.0586 10.806,10.806 0 0 0 2.339844,0.20117 9.325,9.325 0 0 1 1.949218,0.17383 3.946,3.946 0 0 0 0.910156,0.0586 c 2.659334,0.006 5.317896,0.006 7.976563,0 a 4.807,4.807 0 0 0 1.041016,-0.0703 9.849,9.849 0 0 1 1.818359,-0.17578 6.594,6.594 0 0 0 0.914062,-0.0606 c 1.455,-0.265 2.925907,-0.42022 4.378907,-0.69922 a 57.93,57.93 0 0 0 6.699219,-1.71875 63.5,63.5 0 0 0 8.699218,-3.55273 c 1.758,-0.868 3.513797,-1.74175 5.216797,-2.71875 a 56.759,56.759 0 0 0 6.066406,-3.84375 38.237,38.237 0 0 0 4.357422,-3.74219 c 0.61,-0.624 1.168235,-1.29027 1.740235,-1.94727 a 27.481,27.481 0 0 0 3.046876,-4.39843 28.743,28.743 0 0 0 2.81445,-7.15625 30.5,30.5 0 0 0 1.08008,-6.82032 2.134,2.134 0 0 1 0.0547,-0.51757 6.781,6.781 0 0 0 0.16211,-1.81836 c 0.005,-1.35067 0.005,-2.70269 0,-4.05469 a 4.942,4.942 0 0 0 -0.0488,-1.03125 c -0.231,-1.023997 -0.23101,-2.072607 -0.41601,-3.099607 a 43.067,43.067 0 0 0 -1,-4.45508 38.137,38.137 0 0 0 -4.000007,-9.0625 33.043,33.043 0 0 0 -4.763672,-6.199218 c -0.8,-0.807 -1.609156,-1.60039 -2.410156,-2.40039 a 34.571,34.571 0 0 0 -4.015625,-3.33789 39.062,39.062 0 0 0 -6.929688,-4.17969 c -0.119,-0.054 -0.235515,-0.11292 -0.353515,-0.16992 a 29.957,29.957 0 0 0 -7.798828,-2.56054 c -0.385,-0.068 -0.764532,-0.17454 -1.144532,-0.26954 a 0.449,0.449 0 0 1 -0.300781,-0.51562 c 0.03,-0.17 0.06942,-0.33881 0.107422,-0.50781 0.282,-1.231 0.628031,-2.45036 0.832031,-3.69336 a 61.887,61.887 0 0 0 0.894531,-6.19922 c 0.011,-0.173 0.06399,-0.34263 0.08398,-0.51563 0.051,-0.432 0.110765,-0.86378 0.134765,-1.30078 a 12.06,12.06 0 0 1 0.201172,-2.20898 3.437,3.437 0 0 0 0.05078,-0.78125 c 0.004,-2.4 0.004,-4.79674 0,-7.19141 0,-0.347 -0.0568,-0.69501 -0.0918,-1.04101 -0.044,-0.432 -0.09967,-0.86283 -0.138672,-1.29883 -0.031,-0.347 -0.01422,-0.69997 -0.07422,-1.04297 -0.277,-1.585001 -0.532891,-3.17447 -0.96289,-4.73047 A 24.232,24.232 0 0 0 67.710048,24.600324 22.028,22.028 0 0 0 63.118251,20.362043 31.346,31.346 0 0 0 55.56161,16.535871 63.384,63.384 0 0 0 47.139735,14.180402 c -1.108,-0.225 -2.22275,-0.440031 -3.34375,-0.582031 a 20.4,20.4 0 0 0 -3.242187,-0.330078 1.313,1.313 0 0 1 -0.388672,-0.05273 6.518,6.518 0 0 0 -1.687502,-0.15625 c -0.61,-0.007 -1.22008,-0.02267 -1.83008,-0.01367 z m 91.818366,16.205078 a 17.359,17.359 0 0 0 -4.625,0.734375 23.184,23.184 0 0 0 -7.64648,3.884766 c -0.834,0.623 -1.58628,1.358594 -2.36328,2.058594 a 7.315,7.315 0 0 0 -0.59961,0.685547 c -0.198,0.232999 -0.38985,0.469169 -0.58985,0.701169 a 15.553,15.553 0 0 0 -3,5.16602 23.376,23.376 0 0 0 -0.85547,3.41601 c -0.084,0.471 -0.20118,0.94007 -0.24218,1.41407 a 30.573,30.573 0 0 0 -0.32422,3.63672 1.311,1.311 0 0 1 -0.0527,0.38867 6.3,6.3 0 0 0 -0.14843,1.6875 c 0,2.78866 0.003,5.57914 0.008,8.36914 a 4.322,4.322 0 0 0 0.0371,0.91211 17.691,17.691 0 0 1 0.20898,3.125 7.7,7.7 0 0 0 0.084,1.29882 11.524,11.524 0 0 1 0.16992,1.95118 8.293,8.293 0 0 0 0.0742,1.29882 12.4,12.4 0 0 1 0.20117,2.07813 2.744,2.744 0 0 0 0.0606,0.64844 8.1,8.1 0 0 1 0.19921,1.81445 5.157,5.157 0 0 0 0.0957,0.9082 7.715,7.715 0 0 1 0.16406,1.42578 4.646,4.646 0 0 0 0.0918,0.90821 7.993,7.993 0 0 1 0.17382,1.55469 3.951,3.951 0 0 0 0.084,0.777338 7.475,7.475 0 0 1 0.17969,1.55469 3.731,3.731 0 0 0 0.0801,0.77929 7.654,7.654 0 0 1 0.18164,1.6836 4.043,4.043 0 0 0 0.0547,0.78125 11.767,11.767 0 0 1 0.20118,2.4707 8.642,8.642 0 0 0 0.0703,1.43359 15.994,15.994 0 0 1 0.19922,2.59961 8.259,8.259 0 0 0 0.0996,1.30079 9.416,9.416 0 0 1 0.14257,1.55859 12.328,12.328 0 0 0 0.20703,2.59961 3.122,3.122 0 0 1 0.0488,0.65234 11.376,11.376 0 0 0 0.22852,2.599607 c 0.021,1.22 0.1473,2.42958 0.2793,3.64258 a 18.584,18.584 0 0 0 0.23632,2.59961 3.815,3.815 0 0 1 0.0488,0.78125 8.741,8.741 0 0 0 0.19531,1.94726 3.063,3.063 0 0 1 0.0645,0.7793 c -0.002,1.137 0.29979,2.242 0.34179,3.375 0.014,0.388 0.14788,0.77116 0.17188,1.16016 a 19.979,19.979 0 0 0 0.4707,2.95898 30.952,30.952 0 0 0 1.82032,5.71875 21.131,21.131 0 0 0 0.93164,2.01367 32.257,32.257 0 0 0 2.08593,3.31446 c 0.698,0.952 1.54835,1.76645 2.27735,2.68945 a 3.432,3.432 0 0 0 0.48828,0.43164 c 0.234,0.197 0.48422,0.37584 0.69922,0.58984 a 12.974,12.974 0 0 0 1.94336,1.53907 27.088,27.088 0 0 0 4.78125,2.66992 38.376,38.376 0 0 0 4.44531,1.52148 32.017,32.017 0 0 0 6.16211,1.07617 1.785,1.785 0 0 1 0.38672,0.0508 6.573,6.573 0 0 0 1.8164,0.17578 c 0.828,0.006 1.65638,0 2.48438,0 l -0.008,0.0391 c 0.692,0 1.39179,-0.018 2.09179,0 a 14.268,14.268 0 0 0 3.36524,-0.38867 31.77,31.77 0 0 0 7.36523,-2.625 42.528,42.528 0 0 0 5.81055,-3.50586 32.153,32.153 0 0 0 5.01758,-4.36328 c 0.237,-0.255 0.47454,-0.51407 0.68554,-0.78906 a 34.04,34.04 0 0 0 3.58594,-5.75782 31.565,31.565 0 0 0 2.58399,-7.24023 16.781,16.781 0 0 0 0.4707,-3.87695 c -0.008,-0.346 -0.006,-0.69693 0,-1.04493 a 14.635,14.635 0 0 0 -0.82813,-5 13.352,13.352 0 0 0 -3.18359,-5.189447 c -0.4,-0.402 -0.8018,-0.80445 -1.2168,-1.18945 a 7.633,7.633 0 0 0 -0.80664,-0.66016 11.806,11.806 0 0 0 -6.49023,-2.0957 19.438,19.438 0 0 0 -5.30078,0.61328 28.118,28.118 0 0 0 -6.02149,2.14062 c -0.858,0.427 -1.71426,0.85911 -2.57226,1.28711 -0.19,0.097 -0.38985,0.1883 -0.58985,0.2793 a 0.252,0.252 0 0 1 -0.3457,-0.25195 c 0.05,-0.65 0.096,-1.29984 0.14062,-1.95117 a 6.759,6.759 0 0 1 0.0742,-1.04102 10.525,10.525 0 0 0 0.19141,-2.07813 4.594,4.594 0 0 1 0.0488,-0.91211 13.348,13.348 0 0 0 0.22265,-2.5996 3.8,3.8 0 0 1 0.0723,-0.7793 8.689,8.689 0 0 0 0.17187,-1.81836 10.519,10.519 0 0 1 0.0996,-1.5625 12.119,12.119 0 0 0 0.16602,-1.81836 7.587,7.587 0 0 1 0.0859,-1.30078 11.115,11.115 0 0 0 0.17578,-1.94727 8.609,8.609 0 0 1 0.0879,-1.43359 12.438,12.438 0 0 0 0.17773,-2.080078 7.707,7.707 0 0 1 0.082,-1.29883 11.819,11.819 0 0 0 0.17969,-2.08007 7.5,7.5 0 0 1 0.0781,-1.29883 12.728,12.728 0 0 0 0.18554,-2.21094 7.917,7.917 0 0 1 0.0918,-1.29883 10.7,10.7 0 0 0 0.1582,-1.82031 11.632,11.632 0 0 1 0.084,-1.69531 14.853,14.853 0 0 0 0.18164,-2.33985 10.318,10.318 0 0 1 0.17969,-2.21093 3.881,3.881 0 0 0 0.0586,-0.7793 31.174,31.174 0 0 1 0.24414,-4.56055 32.13,32.13 0 0 0 -0.15625,-5.2168 4.4,4.4 0 0 1 -0.0391,-0.65234 26.181,26.181 0 0 0 -0.23047,-2.85937 c -0.16,-1.122 -0.34133,-2.23594 -0.61133,-3.33594 a 23.132,23.132 0 0 0 -2.64258,-6.78711 16.38,16.38 0 0 0 -8.57617,-7.10547 20.254,20.254 0 0 0 -7.27148,-1.400391 z m 161.15235,8.427731 a 4.244,4.244 0 0 0 -0.84571,0.0566 9.911,9.911 0 0 1 -1.95117,0.16602 7.824,7.824 0 0 0 -1.94531,0.19531 5.733,5.733 0 0 1 -0.64844,0.0742 c -0.859,0.138 -1.72227,0.25164 -2.57227,0.43164 a 36.252,36.252 0 0 0 -4.88671,1.41797 29.776,29.776 0 0 0 -5.17579,2.49219 33.162,33.162 0 0 0 -6.39062,4.95117 c -1.109,1.11 -2.22227,2.21694 -3.32227,3.33594 a 28.65,28.65 0 0 0 -1.91797,2.13867 43.646,43.646 0 0 0 -3.94921,5.67578 41.655,41.655 0 0 0 -2.85547,6.29883 45.931,45.931 0 0 0 -1.78125,6.41406 c -0.207,0.979 -0.4345,1.94922 -0.5625,2.94922 -0.111,0.862 -0.29288,1.71422 -0.42188,2.57422 -0.123,0.817 -0.2564,1.63598 -0.3164,2.45898 a 31.83,31.83 0 0 0 -0.32227,3.376958 1.318,1.318 0 0 1 -0.0644,0.38476 6.63,6.63 0 0 0 -0.15235,1.55664 7.617,7.617 0 0 1 -0.0723,1.30078 14.843,14.843 0 0 0 -0.19922,2.59961 8.643,8.643 0 0 1 -0.10156,1.30078 9.632,9.632 0 0 0 -0.13672,1.56055 17.237,17.237 0 0 1 -0.21875,3.25391 3.991,3.991 0 0 0 -0.0332,0.7832 c -0.016,0.74 -0.025,1.48266 -0.043,2.22266 a 4.6,4.6 0 0 1 -0.0586,0.91211 10.39,10.39 0 0 0 -0.16992,2.210927 c -0.017,0.872 -0.025,1.74424 -0.041,2.61524 a 4.524,4.524 0 0 1 -0.0508,0.91211 9.957,9.957 0 0 0 -0.1582,2.21094 v 4.18554 l -0.0137,-0.004 c 0,1.439 -0.006,2.8774 0,4.3164 a 9.664,9.664 0 0 0 0.16601,2.21094 4.668,4.668 0 0 1 0.0566,0.91016 11.942,11.942 0 0 0 0.22461,2.5996 4.381,4.381 0 0 1 0.0547,0.78126 7.535,7.535 0 0 0 0.0586,0.78124 c 0.247,1.458 0.45548,2.92615 0.77148,4.36915 a 30.1,30.1 0 0 0 1.75391,5.59961 c 0.296,0.67899 0.56492,1.37548 0.91992,2.02148 a 23.394,23.394 0 0 0 4.30859,5.71875 c 0.599,0.573 1.22761,1.10634 1.84961,1.65234 a 26.979,26.979 0 0 0 6.17969,4.11133 20.087,20.087 0 0 0 8.70508,2.01172 14.924,14.924 0 0 0 3.51367,-0.23242 18.225,18.225 0 0 0 3.85742,-0.63672 33.975,33.975 0 0 0 6.76172,-2.40039 51.117,51.117 0 0 0 5.68945,-3.20508 c 2.1,-1.332 4.0785,-2.83122 6.0625,-4.32422 1.044,-0.785 2.095,-1.56023 3.125,-2.36523 1.476,-1.152 2.93239,-2.33119 4.40039,-3.49219 1.505,-1.189 3.0043,-2.3795 4.4043,-3.6875 a 3.649,3.649 0 0 1 0.38867,-0.34961 15.355,15.355 0 0 0 1.8457,-1.6582 21.054,21.054 0 0 0 4.05274,-5.57617 24.676,24.676 0 0 0 2.19922,-6.41016 9.833,9.833 0 0 0 0.32031,-2.0625 c -0.008,-1.438 0.007,-2.87545 0,-4.31445 a 4.76,4.76 0 0 0 -0.0859,-0.90821 14.921,14.921 0 0 0 -0.75,-2.63672 9.185,9.185 0 0 0 -1.36328,-2.52148 10.872,10.872 0 0 0 -3.21289,-2.638667 19.017,19.017 0 0 0 -5.76758,-2.0293 16.55,16.55 0 0 0 -3.37304,-0.3457 24,24 0 0 0 -2.46485,0.22265 11.656,11.656 0 0 0 -5.1875,2.01172 31.982,31.982 0 0 0 -3.92969,3.431637 c -0.27799,0.273 -0.4859,0.61639 -0.7539,0.90039 -0.897,0.953 -1.80663,1.8894 -2.64063,2.9004 -0.886,1.07499 -1.84639,2.08504 -2.77539,3.12304 -0.059,0.068 -0.12083,0.13217 -0.17382,0.20117 a 38.325,38.325 0 0 1 -3.6836,3.88672 3.416,3.416 0 0 1 -0.60547,0.5 7.151,7.151 0 0 1 -3.6914,1.16407 c -0.61,0.007 -1.22308,0.0244 -1.83008,-0.0176 a 6.3,6.3 0 0 1 -3.59961,-1.40039 2.213,2.213 0 0 1 -0.49219,-0.59961 8.775,8.775 0 0 1 -0.78515,-2.20508 6.554,6.554 0 0 1 0.23828,-3.85742 7.3,7.3 0 0 1 2.95898,-3.87891 c 0.693,-0.452 1.38227,-0.91309 2.07227,-1.37109 1.991,-1.328997 4.00443,-2.624607 5.89843,-4.099607 a 25.908,25.908 0 0 0 2.5,-2.29883 4.693,4.693 0 0 0 1.27735,-2.80859 7.611,7.611 0 0 0 -0.24219,-3.23633 5.6,5.6 0 0 0 -2.9707,-3.62696 6.818,6.818 0 0 0 -2.89258,-0.7207 c -1.134,-0.006 -2.26544,0.0143 -3.39844,0.0293 a 3.432,3.432 0 0 0 -0.65039,0.0566 21.107,21.107 0 0 1 -4.69141,0.19531 3.31,3.31 0 0 1 -2.02539,-0.81836 5.291,5.291 0 0 1 -1.86914,-3.21094 4.2,4.2 0 0 1 0.0254,-1.818348 4.92,4.92 0 0 1 2.0586,-3.07227 17.809,17.809 0 0 1 3.5957,-1.84766 24.84,24.84 0 0 1 6.38867,-1.23633 c 1.166,-0.11799 2.34363,-0.0833 3.51563,-0.23828 1.031,-0.136 2.07819,-0.10739 3.11718,-0.27539 0.816,-0.133 1.63555,-0.26307 2.43555,-0.45507 a 33.879,33.879 0 0 0 5.19531,-1.7461 28.873,28.873 0 0 0 3.79883,-2.0332 20.086,20.086 0 0 0 3.88086,-3.2832 15.008,15.008 0 0 0 1.63672,-2.03321 13.444,13.444 0 0 0 1.0957,-1.92969 17.858,17.858 0 0 0 1.14453,-3.46679 c 0.169,-0.725 0.21061,-1.46641 0.34961,-2.19141 a 9.4,9.4 0 0 0 0.15235,-1.68555 23.266,23.266 0 0 0 -0.21094,-3.38476 15.164,15.164 0 0 0 -2.07422,-5.86719 12.832,12.832 0 0 0 -2.04101,-2.37109 9.554,9.554 0 0 0 -2.42188,-1.75977 15.8,15.8 0 0 0 -6.60937,-1.87109 3.272,3.272 0 0 1 -0.64649,-0.0801 5.869,5.869 0 0 0 -1.42969,-0.12695 c -0.741,0 -1.48165,-0.007 -2.22265,0 a 4.244,4.244 0 0 0 -0.0645,-0.002 z m -248.939461,4.37696 a 9.761,9.761 0 0 1 2.773437,0.36328 10.3,10.3 0 0 1 2.886719,1.48633 6.477,6.477 0 0 1 2.300781,4.52539 c 0.022,0.391 0,0.78384 0,1.21484 a 11.545,11.545 0 0 1 -0.666015,4.1875 14.522,14.522 0 0 1 -0.980469,2.55664 22.716,22.716 0 0 1 -2.099609,3.74805 21.707,21.707 0 0 1 -1.623047,2.03711 11.513,11.513 0 0 1 -3.94336,2.73047 5.951,5.951 0 0 1 -2.806642,0.45312 5.184,5.184 0 0 1 -2.42578,-0.88476 2.583,2.583 0 0 1 -0.75391,-0.89063 11.844,11.844 0 0 1 -1.45312,-4.02734 10.6,10.6 0 0 1 -0.29297,-2.19336 19.12,19.12 0 0 1 -0.2168,-4.16016 7.367,7.367 0 0 1 0.16797,-1.94336 4.629,4.629 0 0 0 0.0762,-0.77734 9.193,9.193 0 0 1 1.13281,-3.84766 7.721,7.721 0 0 1 2,-2.37695 10.316,10.316 0 0 1 3.04688,-1.72852 9.761,9.761 0 0 1 2.876953,-0.47265 z m 8.820312,47.673818 a 22.068,22.068 0 0 1 1.449219,0 5.621,5.621 0 0 1 1.427735,0.12891 3.6,3.6 0 0 0 0.646484,0.0898 17.576,17.576 0 0 1 6.736328,1.92578 9.3,9.3 0 0 1 1.837891,1.24023 7.939,7.939 0 0 1 2.222656,3.18164 11.877,11.877 0 0 1 0.490234,2.42383 8.7,8.7 0 0 1 -0.226562,2.460937 v 0.004 a 15.23,15.23 0 0 1 -0.96875,2.97266 13.722,13.722 0 0 1 -3.509766,4.5 12.311,12.311 0 0 1 -1.201172,0.78711 14.693,14.693 0 0 1 -3.0625,1.45312 31.14,31.14 0 0 1 -4.933593,1.23829 5.487,5.487 0 0 1 -0.78125,0.0664 8.47,8.47 0 0 0 -1.425782,0.1582 5.082,5.082 0 0 1 -1.041015,0.082 c -1.221,0.009 -2.44111,0 -3.66211,0 a 2.269,2.269 0 0 1 -0.259765,-0.006 c -0.649,-0.072 -1.300313,-0.16385 -1.945313,-0.21485 a 11.616,11.616 0 0 1 -1.814453,-0.20117 c -0.675003,-0.162 -1.373593,-0.22956 -2.058593,-0.35156 a 6.794,6.794 0 0 1 -2.08008,-0.75196 1.779,1.779 0 0 1 -0.88867,-1.07617 3.808,3.808 0 0 1 -0.19336,-1.15429 c 0.006,-0.872 0,-1.74324 0,-2.61524 h 0.0176 c 0,-0.654 -0.0141,-1.30794 0.006,-1.96094 0.014,-0.478 0.0773,-0.95268 0.11133,-1.42968 0.031,-0.434 0.0692,-0.86978 0.0742,-1.30078 0.016,-1.352 0.0234,-2.703357 0.0234,-4.054687 a 4.053,4.053 0 0 1 0.5625,-2.12305 7.276,7.276 0 0 1 1.5664,-1.91406 9.515,9.515 0 0 1 2.564457,-1.53906 29.466,29.466 0 0 1 5.78711,-1.55664 c 0.776,-0.135 1.563078,-0.15521 2.330078,-0.28321 a 22.068,22.068 0 0 1 2.199218,-0.17969 z" fill="#ffffff" style="font-variant-east_asian:normal"/></svg>