<?xml version="1.0" encoding="UTF-8" standalone="no"?><svg xmlns="http://www.w3.org/2000/svg" xmlns:xlink="http://www.w3.org/1999/xlink" clip-rule="evenodd" fill="#000000" fill-rule="evenodd" height="229" preserveAspectRatio="xMidYMid meet" stroke-linejoin="round" stroke-miterlimit="2" version="1" viewBox="142.1 130.2 181.0 228.6" width="181" zoomAndPan="magnify"><g><g><path d="M0 0H500V500H0z" fill="none" transform="translate(.65 .1)"/><g id="change1_1"><path d="M1855.03,8251.07C1845.24,8251.07 1835.34,8249.92 1825.34,8247.63C1808.26,8244.09 1795.96,8237.84 1788.46,8228.88C1782.84,8221.38 1779.51,8212.84 1778.46,8203.25C1778.05,8198.46 1777.84,8193.67 1777.84,8188.88C1777.84,8184.09 1778.05,8179.3 1778.46,8174.5L1783.15,8110.13C1783.57,8099.3 1784.87,8088.62 1787.06,8078.1C1789.25,8067.58 1793.67,8058.05 1800.34,8049.5C1804.09,8045.13 1808.88,8041.38 1814.71,8038.25C1821.8,8034.71 1829.19,8032.94 1836.9,8032.94C1846.69,8032.94 1856.28,8034.4 1865.65,8037.32C1877.74,8040.44 1887.94,8046.38 1896.28,8055.13C1903.36,8064.09 1906.9,8074.19 1906.9,8085.44L1906.9,8088.25C1905.86,8100.55 1901.8,8111.9 1894.71,8122.32L1897.84,8122.32C1907.21,8122.32 1916.17,8125.03 1924.71,8130.44C1933.26,8135.86 1939.71,8143.46 1944.09,8153.25C1947.01,8161.38 1948.46,8169.3 1948.46,8177C1948.46,8189.3 1944.82,8201.17 1937.53,8212.63C1919.19,8238.25 1891.69,8251.07 1855.03,8251.07ZM1847.21,8120.13C1848.67,8119.92 1850.44,8118.98 1852.53,8117.32C1856.28,8113.98 1859.09,8109.82 1860.96,8104.82C1863.05,8100.44 1864.19,8095.75 1864.4,8090.75C1864.4,8085.34 1862.42,8081.07 1858.46,8077.94C1856.17,8076.48 1853.88,8075.75 1851.59,8075.75C1849.09,8075.75 1845.96,8076.8 1842.21,8078.88C1835.96,8082.21 1832.84,8088.88 1832.84,8098.88C1832.84,8103.88 1833.46,8108.36 1834.71,8112.32C1836.17,8117.53 1839.4,8120.13 1844.4,8120.13L1847.21,8120.13ZM1851.9,8196.69C1858.99,8196.27 1865.86,8195.02 1872.53,8192.94C1876.28,8191.9 1879.82,8190.23 1883.15,8187.94C1887.53,8185.03 1889.71,8180.86 1889.71,8175.44C1889.71,8173.57 1889.14,8171.28 1888,8168.57C1886.85,8165.86 1884.82,8163.57 1881.9,8161.69C1877.53,8159.19 1872.94,8157.94 1868.15,8157.94C1864.19,8157.94 1858.57,8159.09 1851.28,8161.38C1843.99,8163.67 1840.03,8167.11 1839.4,8171.69C1838.99,8173.98 1838.78,8176.17 1838.78,8178.25L1838.46,8180.75C1838.26,8182.63 1838.15,8184.61 1838.15,8186.69C1838.15,8193.36 1842.74,8196.69 1851.9,8196.69Z" fill="#373853" fill-rule="nonzero" stroke="#373853" stroke-width="10.42" transform="translate(-1630.55 -7897.52)"/></g><g><path d="M1855.03,8251.07C1845.24,8251.07 1835.34,8249.92 1825.34,8247.63C1808.26,8244.09 1795.96,8237.84 1788.46,8228.88C1782.84,8221.38 1779.51,8212.84 1778.46,8203.25C1778.05,8198.46 1777.84,8193.67 1777.84,8188.88C1777.84,8184.09 1778.05,8179.3 1778.46,8174.5L1783.15,8110.13C1783.57,8099.3 1784.87,8088.62 1787.06,8078.1C1789.25,8067.58 1793.67,8058.05 1800.34,8049.5C1804.09,8045.13 1808.88,8041.38 1814.71,8038.25C1821.8,8034.71 1829.19,8032.94 1836.9,8032.94C1846.69,8032.94 1856.28,8034.4 1865.65,8037.32C1877.74,8040.44 1887.94,8046.38 1896.28,8055.13C1903.36,8064.09 1906.9,8074.19 1906.9,8085.44L1906.9,8088.25C1905.86,8100.55 1901.8,8111.9 1894.71,8122.32L1897.84,8122.32C1907.21,8122.32 1916.17,8125.03 1924.71,8130.44C1933.26,8135.86 1939.71,8143.46 1944.09,8153.25C1947.01,8161.38 1948.46,8169.3 1948.46,8177C1948.46,8189.3 1944.82,8201.17 1937.53,8212.63C1919.19,8238.25 1891.69,8251.07 1855.03,8251.07ZM1847.21,8120.13C1848.67,8119.92 1850.44,8118.98 1852.53,8117.32C1856.28,8113.98 1859.09,8109.82 1860.96,8104.82C1863.05,8100.44 1864.19,8095.75 1864.4,8090.75C1864.4,8085.34 1862.42,8081.07 1858.46,8077.94C1856.17,8076.48 1853.88,8075.75 1851.59,8075.75C1849.09,8075.75 1845.96,8076.8 1842.21,8078.88C1835.96,8082.21 1832.84,8088.88 1832.84,8098.88C1832.84,8103.88 1833.46,8108.36 1834.71,8112.32C1836.17,8117.53 1839.4,8120.13 1844.4,8120.13L1847.21,8120.13ZM1851.9,8196.69C1858.99,8196.27 1865.86,8195.02 1872.53,8192.94C1876.28,8191.9 1879.82,8190.23 1883.15,8187.94C1887.53,8185.03 1889.71,8180.86 1889.71,8175.44C1889.71,8173.57 1889.14,8171.28 1888,8168.57C1886.85,8165.86 1884.82,8163.57 1881.9,8161.69C1877.53,8159.19 1872.94,8157.94 1868.15,8157.94C1864.19,8157.94 1858.57,8159.09 1851.28,8161.38C1843.99,8163.67 1840.03,8167.11 1839.4,8171.69C1838.99,8173.98 1838.78,8176.17 1838.78,8178.25L1838.46,8180.75C1838.26,8182.63 1838.15,8184.61 1838.15,8186.69C1838.15,8193.36 1842.74,8196.69 1851.9,8196.69Z" fill="none" stroke="#ffffff" stroke-width="2.08" transform="translate(-1629.88 -7897.52)"/></g></g></g></svg>