<?xml version="1.0" encoding="UTF-8"?><svg xmlns="http://www.w3.org/2000/svg" xmlns:xlink="http://www.w3.org/1999/xlink" height="270.7" preserveAspectRatio="xMidYMid meet" version="1.0" viewBox="81.1 13.9 137.8 270.7" width="137.8" zoomAndPan="magnify"><g><g id="change1_1"><path d="M 135.390625 284.613281 L 135.085938 283.753906 C 143.121094 280.921875 164.945312 269.640625 159.996094 255.445312 C 158.035156 249.828125 153.3125 247.863281 148.308594 245.777344 C 144.625 244.242188 140.816406 242.652344 138.15625 239.492188 C 136.140625 237.09375 135.28125 234.582031 135.617188 232.035156 C 136.433594 225.824219 144.0625 220.472656 150.199219 216.179688 C 152.894531 214.289062 155.226562 212.652344 156.574219 211.25 C 161.128906 206.519531 162.140625 199.945312 159.230469 194.101562 C 156.242188 188.097656 150.042969 184.722656 143.460938 185.523438 L 143.355469 184.613281 C 150.332031 183.773438 156.886719 187.339844 160.050781 193.691406 C 163.136719 199.894531 162.058594 206.859375 157.234375 211.886719 C 155.820312 213.359375 153.460938 215.015625 150.726562 216.925781 C 144.738281 221.113281 137.285156 226.335938 136.519531 232.15625 C 136.222656 234.472656 136.980469 236.679688 138.859375 238.90625 C 141.371094 241.894531 145.074219 243.4375 148.652344 244.933594 C 153.628906 247 158.769531 249.140625 160.855469 255.140625 C 166.050781 270.039062 143.648438 281.707031 135.390625 284.613281" fill="#231f20"/></g><g id="change2_1"><path d="M 152.738281 15.441406 C 115.519531 13.933594 84.117188 42.882812 82.605469 80.105469 C 81.136719 116.289062 107.253906 176.441406 142.894531 181.167969 L 137.457031 193.320312 L 154.632812 192.90625 L 148.636719 181.441406 C 184.753906 180.113281 215.921875 121.917969 217.394531 85.570312 C 218.90625 48.347656 189.964844 16.957031 152.738281 15.441406" fill="#cd2027"/></g><g id="change3_1"><path d="M 94.710938 101.550781 C 93.289062 101.550781 92.035156 100.523438 91.789062 99.074219 C 90.734375 92.804688 90.304688 86.960938 90.519531 81.714844 C 91.140625 66.285156 97.738281 52.019531 109.09375 41.546875 C 110.644531 40.117188 112.277344 38.769531 113.9375 37.539062 C 115.253906 36.5625 117.113281 36.839844 118.085938 38.15625 C 119.058594 39.472656 118.78125 41.332031 117.46875 42.300781 C 115.972656 43.410156 114.507812 44.625 113.109375 45.910156 C 102.921875 55.300781 97 68.101562 96.4375 81.953125 C 96.242188 86.789062 96.644531 92.222656 97.640625 98.097656 C 97.910156 99.703125 96.824219 101.230469 95.210938 101.511719 C 95.039062 101.53125 94.871094 101.550781 94.710938 101.550781" fill="#fff"/></g><g id="change3_2"><path d="M 108.789062 141.699219 C 107.742188 141.699219 106.730469 141.148438 106.191406 140.160156 C 101.980469 132.492188 98.328125 123.816406 95.636719 115.082031 C 95.152344 113.515625 96.03125 111.859375 97.59375 111.375 C 99.15625 110.890625 100.8125 111.765625 101.300781 113.339844 C 103.878906 121.695312 107.363281 129.980469 111.386719 137.3125 C 112.171875 138.746094 111.648438 140.554688 110.214844 141.335938 C 109.761719 141.585938 109.269531 141.699219 108.789062 141.699219" fill="#fff"/></g></g></svg>