<?xml version="1.0" encoding="UTF-8" standalone="no"?><svg xmlns="http://www.w3.org/2000/svg" xmlns:xlink="http://www.w3.org/1999/xlink" clip-rule="evenodd" fill="#000000" fill-rule="evenodd" height="224" preserveAspectRatio="xMidYMid meet" stroke-linejoin="round" stroke-miterlimit="2" version="1" viewBox="119.1 117.5 223.2 223.5" width="223" zoomAndPan="magnify"><g><g><path d="M0 0H500V500H0z" fill="none" transform="translate(.2 .1)"/><g id="change1_1"><path d="M9801.66,8262.22C9799.58,8262.22 9797.5,8261.91 9795.41,8261.28C9782.91,8256.28 9776.66,8243.26 9776.66,8222.22L9773.85,8168.47C9773.85,8156.8 9770.31,8149.93 9763.23,8147.84L9761.04,8147.53C9758.54,8147.53 9756.09,8148.47 9753.7,8150.34C9751.3,8152.22 9749.43,8154.77 9748.07,8158C9746.72,8161.23 9745.73,8164.72 9745.1,8168.47C9744.68,8171.38 9743.96,8174.3 9742.91,8177.22C9741.87,8180.13 9740.21,8182.84 9737.91,8185.34C9735.62,8187.84 9732.81,8189.2 9729.48,8189.4C9723.02,8188.99 9717.71,8184.4 9713.54,8175.65L9713.23,8175.03C9711.77,8171.7 9710,8168.57 9707.91,8165.65C9704.58,8161.28 9700.52,8159.09 9695.73,8159.09C9690.31,8159.09 9685.62,8162.01 9681.66,8167.84C9678.33,8173.88 9676.35,8180.55 9675.73,8187.84L9669.48,8226.91C9667.81,8243.78 9661.56,8253.26 9650.73,8255.34L9649.48,8255.34C9646.56,8255.34 9643.75,8254.56 9641.04,8253C9638.33,8251.44 9636.04,8249.3 9634.16,8246.59C9630.62,8240.76 9628.43,8234.51 9627.6,8227.84L9626.04,8219.72C9623.75,8206.18 9622.6,8191.9 9622.6,8176.9C9622.6,8151.49 9626.04,8126.38 9632.91,8101.59C9635.21,8090.76 9639.58,8081.07 9646.04,8072.53C9653.75,8064.2 9662.5,8060.03 9672.29,8060.03C9674.79,8060.03 9679.89,8060.86 9687.6,8062.53C9695.31,8064.2 9701.56,8071.7 9706.35,8085.03C9706.98,8087.11 9707.5,8089.3 9707.91,8091.59C9708.54,8094.93 9709.37,8098.1 9710.41,8101.12C9711.46,8104.15 9713.18,8106.38 9715.57,8107.84C9717.97,8109.3 9720.41,8110.03 9722.91,8110.03C9727.5,8110.03 9731.66,8108.15 9735.41,8104.4C9739.79,8098.78 9742.6,8092.32 9743.85,8085.03C9744.06,8084.2 9744.16,8083.26 9744.16,8082.22C9746.87,8066.18 9754.16,8055.97 9766.04,8051.59C9770.41,8049.93 9774.79,8049.09 9779.16,8049.09C9781.66,8049.09 9784.27,8049.4 9786.98,8050.03C9800.93,8053.78 9811.77,8062.22 9819.48,8075.34C9826.14,8087.63 9830.31,8100.97 9831.98,8115.34C9834.27,8132.84 9835.41,8150.34 9835.41,8167.84C9835.41,8183.47 9834.48,8199.2 9832.6,8215.03C9832.39,8226.91 9829.68,8237.95 9824.48,8248.16C9821.35,8253.16 9817.08,8257.01 9811.66,8259.72C9808.54,8261.38 9805.21,8262.22 9801.66,8262.22Z" fill="#ffffff" fill-rule="nonzero" stroke="#ffffff" stroke-width="10.42" transform="translate(-9498.25 -7926.35)"/></g><g><path d="M9801.66,8262.22C9799.58,8262.22 9797.5,8261.91 9795.41,8261.28C9782.91,8256.28 9776.66,8243.26 9776.66,8222.22L9773.85,8168.47C9773.85,8156.8 9770.31,8149.93 9763.23,8147.84L9761.04,8147.53C9758.54,8147.53 9756.09,8148.47 9753.7,8150.34C9751.3,8152.22 9749.43,8154.77 9748.07,8158C9746.72,8161.23 9745.73,8164.72 9745.1,8168.47C9744.68,8171.38 9743.96,8174.3 9742.91,8177.22C9741.87,8180.13 9740.21,8182.84 9737.91,8185.34C9735.62,8187.84 9732.81,8189.2 9729.48,8189.4C9723.02,8188.99 9717.71,8184.4 9713.54,8175.65L9713.23,8175.03C9711.77,8171.7 9710,8168.57 9707.91,8165.65C9704.58,8161.28 9700.52,8159.09 9695.73,8159.09C9690.31,8159.09 9685.62,8162.01 9681.66,8167.84C9678.33,8173.88 9676.35,8180.55 9675.73,8187.84L9669.48,8226.91C9667.81,8243.78 9661.56,8253.26 9650.73,8255.34L9649.48,8255.34C9646.56,8255.34 9643.75,8254.56 9641.04,8253C9638.33,8251.44 9636.04,8249.3 9634.16,8246.59C9630.62,8240.76 9628.43,8234.51 9627.6,8227.84L9626.04,8219.72C9623.75,8206.18 9622.6,8191.9 9622.6,8176.9C9622.6,8151.49 9626.04,8126.38 9632.91,8101.59C9635.21,8090.76 9639.58,8081.07 9646.04,8072.53C9653.75,8064.2 9662.5,8060.03 9672.29,8060.03C9674.79,8060.03 9679.89,8060.86 9687.6,8062.53C9695.31,8064.2 9701.56,8071.7 9706.35,8085.03C9706.98,8087.11 9707.5,8089.3 9707.91,8091.59C9708.54,8094.93 9709.37,8098.1 9710.41,8101.12C9711.46,8104.15 9713.18,8106.38 9715.57,8107.84C9717.97,8109.3 9720.41,8110.03 9722.91,8110.03C9727.5,8110.03 9731.66,8108.15 9735.41,8104.4C9739.79,8098.78 9742.6,8092.32 9743.85,8085.03C9744.06,8084.2 9744.16,8083.26 9744.16,8082.22C9746.87,8066.18 9754.16,8055.97 9766.04,8051.59C9770.41,8049.93 9774.79,8049.09 9779.16,8049.09C9781.66,8049.09 9784.27,8049.4 9786.98,8050.03C9800.93,8053.78 9811.77,8062.22 9819.48,8075.34C9826.14,8087.63 9830.31,8100.97 9831.98,8115.34C9834.27,8132.84 9835.41,8150.34 9835.41,8167.84C9835.41,8183.47 9834.48,8199.2 9832.6,8215.03C9832.39,8226.91 9829.68,8237.95 9824.48,8248.16C9821.35,8253.16 9817.08,8257.01 9811.66,8259.72C9808.54,8261.38 9805.21,8262.22 9801.66,8262.22Z" fill="none" stroke="#ffffff" stroke-width="2.08" transform="translate(-9497.58 -7926.35)"/></g></g></g></svg>