<?xml version="1.0" encoding="UTF-8" standalone="no"?><svg xmlns="http://www.w3.org/2000/svg" xmlns:xlink="http://www.w3.org/1999/xlink" clip-rule="evenodd" fill="#000000" fill-rule="evenodd" height="227" preserveAspectRatio="xMidYMid meet" stroke-linejoin="round" stroke-miterlimit="2" version="1" viewBox="175.1 96.4 154.8 226.7" width="155" zoomAndPan="magnify"><g><g><path d="M0 0H500V500H0z" fill="none" transform="translate(.5 .1)"/><g id="change1_1"><path d="M11755.4,8214.36L11752.9,8214.36C11749.2,8214.36 11745.4,8213.52 11741.7,8211.86C11733.4,8207.27 11727.5,8200.51 11724,8191.55C11720.6,8182.59 11718.6,8173.37 11717.9,8163.89C11717.3,8154.41 11717,8144.78 11717,8134.98C11717,8120.61 11717.9,8106.23 11719.8,8091.86L11721.1,8079.05C11721.7,8071.34 11722.7,8063.68 11724,8056.08C11725.4,8048.47 11727.9,8041.23 11731.7,8034.36C11740.9,8018.94 11753.4,8008.32 11769.2,8002.48C11777.3,7999.57 11785.4,7998.11 11793.6,7998.11C11801.9,7998.11 11810.2,7999.57 11818.6,8002.48C11836.7,8009.15 11849.6,8021.23 11857.3,8038.73C11860,8046.03 11861.4,8053.21 11861.4,8060.3C11861.4,8070.71 11858.3,8080.92 11852,8090.92C11842.8,8102.59 11831.1,8110.51 11816.7,8114.67C11793.1,8122.59 11780.8,8138.42 11779.5,8162.17C11779.5,8170.09 11779,8178.01 11777.9,8185.92C11777.3,8195.09 11774,8202.9 11767.9,8209.36C11764.4,8212.27 11760.2,8213.94 11755.4,8214.36ZM11784.5,8085.92L11788.3,8085.61C11793,8083.73 11796.8,8080.4 11799.5,8075.61C11802.8,8070.82 11804.5,8065.4 11804.5,8059.36C11804.5,8055.82 11803.2,8052.33 11800.6,8048.89C11798,8045.45 11794.5,8043.73 11790.1,8043.73C11787.4,8043.73 11784.7,8044.78 11781.8,8046.86C11779,8048.94 11776.9,8051.7 11775.6,8055.14C11774.2,8058.58 11773.6,8063.42 11773.6,8069.67C11773.6,8074.26 11774.5,8078.11 11776.4,8081.23C11778.3,8084.36 11781,8085.92 11784.5,8085.92Z" fill="#373853" fill-rule="nonzero" stroke="#373853" stroke-width="10.42" transform="translate(-11536.7 -7896.55)"/></g><g><path d="M11755.4,8214.36L11752.9,8214.36C11749.2,8214.36 11745.4,8213.52 11741.7,8211.86C11733.4,8207.27 11727.5,8200.51 11724,8191.55C11720.6,8182.59 11718.6,8173.37 11717.9,8163.89C11717.3,8154.41 11717,8144.78 11717,8134.98C11717,8120.61 11717.9,8106.23 11719.8,8091.86L11721.1,8079.05C11721.7,8071.34 11722.7,8063.68 11724,8056.08C11725.4,8048.47 11727.9,8041.23 11731.7,8034.36C11740.9,8018.94 11753.4,8008.32 11769.2,8002.48C11777.3,7999.57 11785.4,7998.11 11793.6,7998.11C11801.9,7998.11 11810.2,7999.57 11818.6,8002.48C11836.7,8009.15 11849.6,8021.23 11857.3,8038.73C11860,8046.03 11861.4,8053.21 11861.4,8060.3C11861.4,8070.71 11858.3,8080.92 11852,8090.92C11842.8,8102.59 11831.1,8110.51 11816.7,8114.67C11793.1,8122.59 11780.8,8138.42 11779.5,8162.17C11779.5,8170.09 11779,8178.01 11777.9,8185.92C11777.3,8195.09 11774,8202.9 11767.9,8209.36C11764.4,8212.27 11760.2,8213.94 11755.4,8214.36ZM11784.5,8085.92L11788.3,8085.61C11793,8083.73 11796.8,8080.4 11799.5,8075.61C11802.8,8070.82 11804.5,8065.4 11804.5,8059.36C11804.5,8055.82 11803.2,8052.33 11800.6,8048.89C11798,8045.45 11794.5,8043.73 11790.1,8043.73C11787.4,8043.73 11784.7,8044.78 11781.8,8046.86C11779,8048.94 11776.9,8051.7 11775.6,8055.14C11774.2,8058.58 11773.6,8063.42 11773.6,8069.67C11773.6,8074.26 11774.5,8078.11 11776.4,8081.23C11778.3,8084.36 11781,8085.92 11784.5,8085.92Z" fill="none" stroke="#ffffff" stroke-width="2.08" transform="translate(-11536 -7896.55)"/></g></g></g></svg>