<?xml version="1.0" encoding="UTF-8" standalone="no"?><svg xmlns="http://www.w3.org/2000/svg" xmlns:xlink="http://www.w3.org/1999/xlink" clip-rule="evenodd" fill="#000000" fill-rule="evenodd" height="231" preserveAspectRatio="xMidYMid meet" stroke-linejoin="round" stroke-miterlimit="2" version="1" viewBox="156.1 112.7 178.5 231.4" width="179" zoomAndPan="magnify"><g><g><path d="M0 0H500V500H0z" fill="none" transform="translate(.35 .1)"/><g id="change1_1"><path d="M5776.24,8225.15L5774.99,8225.15C5771.04,8225.15 5767.23,8224.16 5763.59,8222.18C5759.94,8220.2 5756.87,8217.44 5754.37,8213.9C5749.99,8206.6 5747.08,8198.69 5745.62,8190.15C5739.79,8163.48 5734.99,8136.61 5731.24,8109.52C5729.16,8097.23 5728.02,8084.83 5727.81,8072.33C5727.81,8066.29 5728.33,8060.04 5729.37,8053.58C5731.04,8042.96 5736.56,8033.27 5745.93,8024.52C5750.1,8020.56 5755.2,8018.58 5761.24,8018.58C5771.24,8018.58 5779.79,8022.13 5786.87,8029.21C5793.74,8036.71 5798.22,8045.46 5800.31,8055.46C5801.97,8064.21 5802.81,8073.06 5802.81,8082.02L5803.12,8093.58C5804.79,8098.58 5807.7,8101.08 5811.87,8101.08C5812.7,8101.08 5814.01,8100.82 5815.78,8100.3C5817.55,8099.78 5819.42,8098.27 5821.4,8095.77C5823.38,8093.27 5824.89,8090.25 5825.93,8086.71L5825.62,8075.15C5825.62,8050.36 5829.37,8032.33 5836.87,8021.08C5839.99,8016.71 5843.33,8012.8 5846.87,8009.37C5850.41,8005.93 5855.31,8004.21 5861.56,8004.21C5871.14,8004.63 5879.06,8009 5885.31,8017.33C5890.93,8025.67 5894.27,8035.15 5895.31,8045.77C5895.72,8050.77 5895.93,8055.88 5895.93,8061.08C5895.93,8066.08 5895.72,8071.19 5895.31,8076.4C5893.02,8112.02 5889.16,8147.33 5883.74,8182.33C5882.7,8190.88 5880.31,8199.05 5876.56,8206.87C5872.81,8214.68 5866.97,8219.1 5859.06,8220.15L5857.49,8220.15C5853.54,8220.15 5849.89,8218.9 5846.56,8216.4C5843.22,8213.9 5840.52,8210.67 5838.43,8206.71C5833.64,8195.88 5830.31,8171.81 5828.43,8134.52C5825.1,8132.02 5821.56,8130.77 5817.81,8130.77C5810.72,8130.77 5805.62,8134.21 5802.49,8141.08C5801.87,8156.5 5800.93,8171.81 5799.68,8187.02C5798.64,8209.52 5790.83,8222.23 5776.24,8225.15Z" fill="#ffffff" fill-rule="nonzero" stroke="#ffffff" stroke-width="10.42" transform="translate(-5566.51 -7886.32)"/></g><g><path d="M5776.24,8225.15L5774.99,8225.15C5771.04,8225.15 5767.23,8224.16 5763.59,8222.18C5759.94,8220.2 5756.87,8217.44 5754.37,8213.9C5749.99,8206.6 5747.08,8198.69 5745.62,8190.15C5739.79,8163.48 5734.99,8136.61 5731.24,8109.52C5729.16,8097.23 5728.02,8084.83 5727.81,8072.33C5727.81,8066.29 5728.33,8060.04 5729.37,8053.58C5731.04,8042.96 5736.56,8033.27 5745.93,8024.52C5750.1,8020.56 5755.2,8018.58 5761.24,8018.58C5771.24,8018.58 5779.79,8022.13 5786.87,8029.21C5793.74,8036.71 5798.22,8045.46 5800.31,8055.46C5801.97,8064.21 5802.81,8073.06 5802.81,8082.02L5803.12,8093.58C5804.79,8098.58 5807.7,8101.08 5811.87,8101.08C5812.7,8101.08 5814.01,8100.82 5815.78,8100.3C5817.55,8099.78 5819.42,8098.27 5821.4,8095.77C5823.38,8093.27 5824.89,8090.25 5825.93,8086.71L5825.62,8075.15C5825.62,8050.36 5829.37,8032.33 5836.87,8021.08C5839.99,8016.71 5843.33,8012.8 5846.87,8009.37C5850.41,8005.93 5855.31,8004.21 5861.56,8004.21C5871.14,8004.63 5879.06,8009 5885.31,8017.33C5890.93,8025.67 5894.27,8035.15 5895.31,8045.77C5895.72,8050.77 5895.93,8055.88 5895.93,8061.08C5895.93,8066.08 5895.72,8071.19 5895.31,8076.4C5893.02,8112.02 5889.16,8147.33 5883.74,8182.33C5882.7,8190.88 5880.31,8199.05 5876.56,8206.87C5872.81,8214.68 5866.97,8219.1 5859.06,8220.15L5857.49,8220.15C5853.54,8220.15 5849.89,8218.9 5846.56,8216.4C5843.22,8213.9 5840.52,8210.67 5838.43,8206.71C5833.64,8195.88 5830.31,8171.81 5828.43,8134.52C5825.1,8132.02 5821.56,8130.77 5817.81,8130.77C5810.72,8130.77 5805.62,8134.21 5802.49,8141.08C5801.87,8156.5 5800.93,8171.81 5799.68,8187.02C5798.64,8209.52 5790.83,8222.23 5776.24,8225.15Z" fill="none" stroke="#ffffff" stroke-width="2.08" transform="translate(-5565.84 -7886.32)"/></g></g></g></svg>