<?xml version="1.0" encoding="UTF-8" standalone="no"?><svg xmlns="http://www.w3.org/2000/svg" xmlns:xlink="http://www.w3.org/1999/xlink" clip-rule="evenodd" fill="#000000" fill-rule="evenodd" height="227" preserveAspectRatio="xMidYMid meet" stroke-linejoin="round" stroke-miterlimit="2" version="1" viewBox="141.6 100.5 159.8 227.3" width="160" zoomAndPan="magnify"><g><g><path d="M0 0H500V500H0z" fill="none" transform="translate(.92 .1)"/><g id="change1_1"><path d="M2498.77,8266.1L2497.52,8266.1C2484.19,8266.1 2471.69,8263.08 2460.02,8257.04C2435.85,8243.29 2420.23,8222.77 2413.14,8195.48C2410.85,8185.68 2409.71,8176 2409.71,8166.41C2409.71,8149.75 2413.14,8133.29 2420.02,8117.04C2427.94,8097.25 2440.23,8080.79 2456.89,8067.66C2472.94,8055.37 2490.75,8049.23 2510.33,8049.23C2518.46,8049.23 2525.75,8050.79 2532.21,8053.91C2537.62,8056.83 2541.37,8061.1 2543.46,8066.73C2544.08,8068.81 2544.39,8070.89 2544.39,8072.98C2544.39,8076.52 2543.14,8080.58 2540.64,8085.16C2535.23,8095.37 2522.83,8102.25 2503.46,8105.79L2495.33,8107.66C2473.04,8113.08 2459.71,8125.27 2455.33,8144.23C2454.5,8147.98 2454.08,8151.73 2454.08,8155.48C2454.08,8162.14 2455.54,8168.7 2458.46,8175.16C2466.79,8190.79 2480.33,8198.6 2499.08,8198.6C2504.29,8198.6 2509.71,8197.87 2515.33,8196.41L2515.64,8196.41C2522.52,8194.33 2528.66,8193.29 2534.08,8193.29C2540.75,8193.29 2546.16,8195.37 2550.33,8199.54C2556.16,8205.58 2559.08,8212.45 2559.08,8220.16C2559.08,8222.45 2558.87,8224.75 2558.46,8227.04C2554.91,8239.12 2547.47,8248.65 2536.11,8255.63C2524.76,8262.61 2512.31,8266.1 2498.77,8266.1Z" fill="#373853" fill-rule="nonzero" stroke="#373853" stroke-width="10.42" transform="translate(-2262.85 -7943.54)"/></g><g><path d="M2498.77,8266.1L2497.52,8266.1C2484.19,8266.1 2471.69,8263.08 2460.02,8257.04C2435.85,8243.29 2420.23,8222.77 2413.14,8195.48C2410.85,8185.68 2409.71,8176 2409.71,8166.41C2409.71,8149.75 2413.14,8133.29 2420.02,8117.04C2427.94,8097.25 2440.23,8080.79 2456.89,8067.66C2472.94,8055.37 2490.75,8049.23 2510.33,8049.23C2518.46,8049.23 2525.75,8050.79 2532.21,8053.91C2537.62,8056.83 2541.37,8061.1 2543.46,8066.73C2544.08,8068.81 2544.39,8070.89 2544.39,8072.98C2544.39,8076.52 2543.14,8080.58 2540.64,8085.16C2535.23,8095.37 2522.83,8102.25 2503.46,8105.79L2495.33,8107.66C2473.04,8113.08 2459.71,8125.27 2455.33,8144.23C2454.5,8147.98 2454.08,8151.73 2454.08,8155.48C2454.08,8162.14 2455.54,8168.7 2458.46,8175.16C2466.79,8190.79 2480.33,8198.6 2499.08,8198.6C2504.29,8198.6 2509.71,8197.87 2515.33,8196.41L2515.64,8196.41C2522.52,8194.33 2528.66,8193.29 2534.08,8193.29C2540.75,8193.29 2546.16,8195.37 2550.33,8199.54C2556.16,8205.58 2559.08,8212.45 2559.08,8220.16C2559.08,8222.45 2558.87,8224.75 2558.46,8227.04C2554.91,8239.12 2547.47,8248.65 2536.11,8255.63C2524.76,8262.61 2512.31,8266.1 2498.77,8266.1Z" fill="none" stroke="#ffffff" stroke-width="2.08" transform="translate(-2262.18 -7943.54)"/></g></g></g></svg>