<?xml version="1.0" encoding="UTF-8" standalone="no"?><svg xmlns="http://www.w3.org/2000/svg" xmlns:xlink="http://www.w3.org/1999/xlink" fill="#000000" height="425.6" preserveAspectRatio="xMidYMid meet" version="1" viewBox="34.0 35.1 420.5 425.6" width="420.5" zoomAndPan="magnify"><g clip-rule="evenodd" fill-rule="evenodd"><g id="change1_1"><path d="M158.2,273L158.2,273L158.2,273z"/></g><g id="change2_1"><path d="M430.5,36.8L48.3,190.7c-13.8,5.5-14.3,24.9-0.8,31.1L158.2,273L443,36.6C439.1,35.1,434.7,35.1,430.5,36.8z" fill="#03a8dd"/></g><g id="change3_1"><path d="M227.5,319.5L421.3,67.1L164,280.7l11.5,132.9l51.5-93.4C227.2,320,227.3,319.7,227.5,319.5z" fill="#373853"/></g><g id="change2_2"><path d="M451.4,43.7l-214.2,279L326,448.8c8.4,11.9,26.7,8.5,30.3-5.6l0,0l97-386.5C454.5,52,453.7,47.5,451.4,43.7z" fill="#03a8dd"/></g><g id="change3_2"><path d="M186.4 413.8L255.4 365.2 231.7 331.6z" fill="#373853"/></g></g></svg>