<svg xmlns="http://www.w3.org/2000/svg" xmlns:xlink="http://www.w3.org/1999/xlink" width="500" zoomAndPan="magnify" viewBox="0 0 375 374.999991" height="500" preserveAspectRatio="xMidYMid meet" version="1.0"><defs><g/></defs><g fill="#ffffff" fill-opacity="1"><g transform="translate(52.245437, 337.744175)"><g><path d="M 248 -240.796875 C 249.695312 -225.535156 249.835938 -208.929688 248.421875 -190.984375 C 247.015625 -173.035156 243.765625 -155.085938 238.671875 -137.140625 C 233.585938 -119.191406 226.453125 -102.515625 217.265625 -87.109375 C 208.078125 -71.710938 196.769531 -58.710938 183.34375 -48.109375 C 169.925781 -37.515625 154.316406 -30.664062 136.515625 -27.5625 C 117.859375 -24.445312 101.957031 -25.859375 88.8125 -31.796875 C 75.675781 -37.734375 64.796875 -46.914062 56.171875 -59.34375 C 47.546875 -71.78125 40.691406 -86.050781 35.609375 -102.15625 C 30.523438 -118.269531 26.921875 -135.085938 24.796875 -152.609375 C 22.679688 -170.140625 21.550781 -186.890625 21.40625 -202.859375 C 21.269531 -218.828125 21.625 -232.882812 22.46875 -245.03125 C 23.03125 -252.945312 25.644531 -259.378906 30.3125 -264.328125 C 34.976562 -269.273438 40.488281 -272.59375 46.84375 -274.28125 C 53.207031 -275.976562 59.492188 -275.976562 65.703125 -274.28125 C 71.921875 -272.59375 77.007812 -269.34375 80.96875 -264.53125 C 84.925781 -259.726562 86.625 -253.226562 86.0625 -245.03125 C 85.78125 -240.789062 85.492188 -233.582031 85.203125 -223.40625 C 84.921875 -213.238281 85.0625 -201.722656 85.625 -188.859375 C 86.195312 -176.003906 87.398438 -163.078125 89.234375 -150.078125 C 91.078125 -137.078125 93.765625 -125.488281 97.296875 -115.3125 C 100.828125 -105.132812 105.554688 -97.785156 111.484375 -93.265625 C 117.421875 -88.742188 124.914062 -88.601562 133.96875 -92.84375 C 146.40625 -98.78125 156.296875 -107.539062 163.640625 -119.125 C 170.984375 -130.71875 176.351562 -143.71875 179.75 -158.125 C 183.144531 -172.539062 185.125 -187.023438 185.6875 -201.578125 C 186.25 -216.140625 185.820312 -229.210938 184.40625 -240.796875 C 183.28125 -248.710938 184.550781 -255.140625 188.21875 -260.078125 C 191.894531 -265.023438 196.769531 -268.273438 202.84375 -269.828125 C 208.925781 -271.390625 215.21875 -271.320312 221.71875 -269.625 C 228.21875 -267.925781 233.941406 -264.675781 238.890625 -259.875 C 243.835938 -255.070312 246.875 -248.710938 248 -240.796875 Z M 248 -240.796875 "/></g></g></g></svg>